<svg width="62" height="62" viewBox="0 0 62 62" fill="none" xmlns="http://www.w3.org/2000/svg">
<g id="Christine" clipPath="url(#clip0)">
<rect width="60.606" height="60.606" transform="translate(0.684143 0.572266)" fill="white"/>
<path id="Vector" d="M114.326 7.64824C129.633 20.5464 141.598 35.5814 151.466 52.9085C161.295 70.1967 169.182 89.7771 161.179 103.219C153.331 116.661 129.788 123.965 114.209 133.833C98.7858 143.545 91.3266 155.939 80.6817 160.057C70.1534 164.175 56.5947 160.329 38.3741 160.329C20.27 160.329 -2.49609 164.175 -11.9366 155.278C-21.3772 146.498 -17.803 125.053 -18.7354 105.511C-19.7843 85.8144 -25.6507 67.9823 -22.465 51.3545C-19.3958 34.7267 -7.54658 19.1478 7.99341 6.24964C23.4169 -6.532 42.6087 -16.7884 61.3733 -16.5164C80.2544 -16.1668 99.0189 -5.3665 114.326 7.64824Z" fill="#49574E"/>
<g id="Group 32">
<path id="Neck" fillRule="evenodd" clipRule="evenodd" d="M21.7469 38.6937L20.3094 48.717L13.8992 53.884C13.8992 53.884 0.806715 116.704 4.88596 119.113C7.13926 120.473 44.0079 128.903 47.5821 127.816C50.962 126.767 38.1804 61.6151 39.8509 61.2266C42.9201 60.4496 38.025 52.7962 38.025 52.7962L37.6754 42.3067L37.9473 37.7224L21.7469 38.6937Z" fill="#F45B49" stroke="#1C2628" strokeWidth="0.827504" strokeLinecap="round" strokeLinejoin="round"/>
<path id="Vector_2" fillRule="evenodd" clipRule="evenodd" d="M42.182 30.8072C42.6871 19.6573 39.7734 21.7552 38.9575 18.7637C37.4035 12.7808 35.4999 10.8772 24.3888 12.2758C22.4463 12.5089 20.1541 12.742 18.4447 13.7521C10.597 18.3364 11.1021 24.7855 11.1021 24.7855C11.1021 24.7855 7.72212 40.0146 24.4276 40.4808C41.1331 40.9082 24.4665 40.2089 33.2466 37.4894C42.0266 34.7311 42.182 30.8072 42.182 30.8072Z" fill="#1C2628" stroke="#1C2628" strokeWidth="0.827504" strokeLinecap="round" strokeLinejoin="round"/>
<path id="Vector_3" fillRule="evenodd" clipRule="evenodd" d="M19.649 32.5554C18.9497 29.9913 19.1828 24.8631 19.8044 22.5321C20.931 18.3363 21.7469 18.6083 26.0592 17.4039C30.8766 16.083 35.189 15.6557 38.3358 19.5018C39.5402 20.9781 41.6381 28.787 42.182 30.8072C44.1633 37.9944 40.2783 43.1615 33.635 44.9874C29.3615 46.1529 25.9038 45.8033 22.757 42.773C20.9699 41.1024 20.3483 35.1584 19.649 32.5554Z" fill="#F45B49" stroke="#1C2628" strokeWidth="0.827504" strokeLinecap="round" strokeLinejoin="round"/>
<path id="Neck2" fillRule="evenodd" clipRule="evenodd" d="M23.2232 50.1157L22.1743 39.6651C22.1743 39.6651 30.6047 37.8003 32.6249 40.0147C34.6451 42.1903 32.5084 49.3776 32.5084 49.3776L27.419 50.1157" fill="#FB564C"/>
<g id="Face">
<g id="Eyes">
<path id="Vector_4" fillRule="evenodd" clipRule="evenodd" d="M25.2047 30.8847C24.8939 29.8746 25.7874 28.7091 27.2637 28.204C28.74 27.7378 30.1775 28.1263 30.4883 29.1364C30.8379 30.1465 29.9055 31.312 28.4292 31.8171C26.9918 32.2833 25.5543 31.8559 25.2047 30.8847Z" fill="#FAFCFF" stroke="#1C2628" strokeWidth="0.827504" strokeLinecap="round" strokeLinejoin="round"/>
<path id="Vector_5" fillRule="evenodd" clipRule="evenodd" d="M34.1791 28.2043C33.8683 27.1942 34.7618 26.0287 36.2381 25.5236C37.7144 25.0574 39.1518 25.4459 39.4626 26.456C39.8123 27.4661 38.8799 28.6316 37.4036 29.1367C35.9661 29.6417 34.5287 29.2144 34.1791 28.2043Z" fill="#FAFCFF" stroke="#1C2628" strokeWidth="0.827504" strokeLinecap="round" strokeLinejoin="round"/>
<path id="Vector_6" fillRule="evenodd" clipRule="evenodd" d="M29.7502 31.312C29.0509 31.7782 28.1962 31.6616 27.8465 31.1177C27.4969 30.5738 27.7688 29.7191 28.4681 29.2918C29.1674 28.8256 30.0221 28.9421 30.3718 29.486C30.7603 30.0299 30.4495 30.8458 29.7502 31.312Z" fill="#1C2628" stroke="#1C2628" strokeWidth="0.827504" strokeLinecap="round" strokeLinejoin="round"/>
<path id="Vector_7" fillRule="evenodd" clipRule="evenodd" d="M36.8986 28.3594C36.4324 27.6601 36.5489 26.5335 38.4137 26.1839C39.0742 26.0673 38.9965 26.3781 39.4627 27.0774C39.9289 27.7767 39.3073 28.5537 38.7245 28.9034C38.2195 29.2919 37.3648 29.0199 36.8986 28.3594Z" fill="#1C2628" stroke="#1C2628" strokeWidth="0.827504" strokeLinecap="round" strokeLinejoin="round"/>
</g>
<g id="Ear">
<g id="Vector_8">
<path fillRule="evenodd" clipRule="evenodd" d="M20.6981 32.672C19.7657 31.5065 17.8232 32.672 17.4735 33.7986C16.7354 36.0908 19.144 39.9369 22.7571 37.0232" fill="#F45B49"/>
<path d="M20.6981 32.672C19.7657 31.5065 17.8232 32.672 17.4735 33.7986C16.7354 36.0908 19.144 39.9369 22.7571 37.0232" stroke="#1C2628" strokeWidth="0.827504" strokeLinecap="round" strokeLinejoin="round"/>
</g>
<path id="Vector_9" d="M20.5037 35.1193C20.5037 35.1193 20.0375 34.5754 20.1152 34.6531" stroke="#1C2628" strokeWidth="0.827504" strokeLinecap="round" strokeLinejoin="round"/>
</g>
<path id="Vector_10" fillRule="evenodd" clipRule="evenodd" d="M29.5169 35.1196C30.4493 37.101 33.13 36.4017 35.0336 37.101C35.0336 37.101 33.5185 40.3644 30.3328 38.655C28.196 37.4895 29.5169 35.1196 29.5169 35.1196Z" fill="#1C2628" stroke="#1C2628" strokeWidth="0.827504" strokeLinecap="round" strokeLinejoin="round"/>
<g id="Vector_11">
<path fillRule="evenodd" clipRule="evenodd" d="M33.0522 28.9033C33.0522 28.9033 38.5301 32.5941 38.2582 33.4488C37.2092 36.7122 34.4897 34.2258 33.9847 34.3423" fill="#F45B49"/>
<path d="M33.0522 28.9033C33.0522 28.9033 38.5301 32.5941 38.2582 33.4488C37.2092 36.7122 34.4897 34.2258 33.9847 34.3423" stroke="#1C2628" strokeWidth="0.827504" strokeLinecap="round" strokeLinejoin="round"/>
</g>
</g>
<path id="Body" fillRule="evenodd" clipRule="evenodd" d="M-47.2895 78.5538C-56.9243 91.2966 -50.8637 109.828 -41.0735 121.483C-38.7425 123.659 -20.8715 112.392 -20.8715 112.392L-24.1349 94.56L-6.0697 83.9928C-6.0697 83.9928 -11.5475 112.858 -4.70995 116.627C6.94504 123.076 21.6692 116.899 34.6062 116.394C41.4827 117.559 53.7981 117.715 59.2759 115.073C67.0848 111.304 59.7422 90.8304 59.7422 90.8304C59.7422 90.8304 73.4173 96.386 88.8019 95.0262C104.225 93.7053 121.358 85.4691 121.358 85.4691L112.267 63.9851L80.0218 68.1809C80.0218 68.1809 72.3684 61.8483 60.5192 59.4008C48.6699 56.9144 40.1229 52.3689 40.1229 52.3689C39.8898 53.3013 35.1501 59.595 34.2566 60.7994L20.426 52.2912L18.1727 50.8926C18.1727 50.8926 7.45009 47.94 -5.6035 51.8639C-18.0355 55.5935 -37.6547 65.811 -47.2895 78.5538Z" fill="#F3A140" stroke="#1C2628" strokeWidth="0.827504" strokeLinecap="round" strokeLinejoin="round"/>
<g id="Abstract">
<path id="Vector_12" d="M6.82859 36.5958C8.11596 36.5958 9.15959 35.5522 9.15959 34.2648C9.15959 32.9775 8.11596 31.9338 6.82859 31.9338C5.54121 31.9338 4.49759 32.9775 4.49759 34.2648C4.49759 35.5522 5.54121 36.5958 6.82859 36.5958Z" fill="#FAF6EB"/>
<path id="Vector_13" d="M47.0772 41.1412C48.3645 41.1412 49.4082 40.0976 49.4082 38.8102C49.4082 37.5229 48.3645 36.4792 47.0772 36.4792C45.7898 36.4792 44.7462 37.5229 44.7462 38.8102C44.7462 40.0976 45.7898 41.1412 47.0772 41.1412Z" fill="#FAF6EB"/>
<path id="Vector_14" d="M33.4409 54.2726C34.7282 54.2726 35.7719 53.229 35.7719 51.9416C35.7719 50.6542 34.7282 49.6106 33.4409 49.6106C32.1535 49.6106 31.1099 50.6542 31.1099 51.9416C31.1099 53.229 32.1535 54.2726 33.4409 54.2726Z" fill="#FAF6EB"/>
</g>
<g id="Hair">
<path id="Vector_15" fillRule="evenodd" clipRule="evenodd" d="M35.0336 14.2568L38.3358 19.5404C34.14 14.2568 32.8191 29.3695 21.98 29.3695C21.6692 29.3695 15.8417 30.8458 15.8805 30.4573C15.9194 29.9522 16.8129 30.0299 17.1626 29.6803C17.9784 28.8256 18.2504 27.8932 18.4446 26.8054C18.7166 25.4456 17.5511 22.6484 18.6777 21.5995C20.5425 19.8901 23.1843 14.1014 25.3599 14.2957L35.0336 14.2568Z" fill="#1C2628" stroke="#1C2628" strokeWidth="0.827504" strokeLinecap="round" strokeLinejoin="round"/>
<g id="Vector_16">
<path fillRule="evenodd" clipRule="evenodd" d="M23.9613 15.1895C23.4563 14.8787 22.6793 13.6355 22.2131 13.5189C20.1152 13.0527 15.1035 11.0714 12.5394 13.5966C9.97531 16.1219 11.8013 17.7147 11.8013 17.7147C11.8013 17.7147 5.50756 20.3177 12.4617 25.407C13.2776 26.0286 12.4229 26.6502 13.4718 26.8056C14.2877 26.9222 15.1035 26.9222 15.9582 26.961" fill="#1C2628"/>
<path d="M23.9613 15.1895C23.4563 14.8787 22.6793 13.6355 22.2131 13.5189C20.1152 13.0527 15.1035 11.0714 12.5394 13.5966C9.97531 16.1219 11.8013 17.7147 11.8013 17.7147C11.8013 17.7147 5.50756 20.3177 12.4617 25.407C13.2776 26.0286 12.4229 26.6502 13.4718 26.8056C14.2877 26.9222 15.1035 26.9222 15.9582 26.961" stroke="#1C2628" strokeWidth="0.827504" strokeLinecap="round" strokeLinejoin="round"/>
</g>
</g>
<path id="Collar" d="M17.3568 54.7L35.6552 67.7535L43.0755 56.254" stroke="#1C2628" strokeWidth="0.827504" strokeLinecap="round" strokeLinejoin="round"/>
</g>
</g>
<defs>
<clipPath id="clip0">
<rect width="60.606" height="60.606" fill="white" transform="translate(0.684143 0.572266)"/>
</clipPath>
</defs>
</svg>
