<svg width="61" height="61" viewBox="0 0 61 61" fill="none" xmlns="http://www.w3.org/2000/svg">
<g id="haiden" clipPath="url(#clip0)">
<rect width="60.0227" height="60.0227" transform="translate(0 0.707031)" fill="white"/>
<path id="Vector" fillRule="evenodd" clipRule="evenodd" d="M18.5766 137.459C2.15107 115.675 20.3532 92.4933 37.0408 77.4369C74.6973 27.7536 -7.69262 83.64 -33.0299 66.9818C-73.2784 33.549 10.8881 -14.0083 20.4405 -17.8234C52.9713 -30.8121 90.686 -39.7528 110.315 -7.97994C110.344 -7.92169 110.373 -7.86344 110.402 -7.8052C119.868 11.5614 85.3564 17.8228 97.0349 31.8308C106.5 43.1886 135.711 25.5694 135.711 52.0419C139.555 78.8639 41.4093 149.545 18.5766 137.459Z" fill="#F3A13B"/>
<path id="Vector_2" fillRule="evenodd" clipRule="evenodd" d="M67.449 -29.6487C65.7274 -26.9935 63.5097 -24.7176 60.5625 -23.0253C55.135 -20.1367 49.3865 -19.8157 43.2879 -20.4576C40.5741 -20.9245 37.7728 -21.7998 35.4676 -23.2879C30.3903 -21.6248 25.3421 -19.7574 20.4107 -17.8025C19.973 -15.3807 19.7103 -13.1632 19.652 -11.3541C19.6228 -10.7414 19.6228 -10.0703 19.6228 -9.39921C23.0952 -9.16579 26.6552 -8.49469 29.865 -8.3488C32.4329 -8.3488 35.2925 -6.10211 34.9715 -3.24267C34.3588 1.60087 31.3532 4.51866 27.2972 6.29851C27.2972 6.32769 27.3263 6.35687 27.3263 6.38604C28.7854 10.8211 22.4533 27.5109 44.4551 28.7947C46.8187 21.471 51.3708 11.6672 60.7084 5.13139C61.8172 4.34359 62.9261 3.6725 64.0349 3.05976C62.8386 -5.02252 67.6533 -13.4549 76.8158 -13.4549C81.9224 -13.4549 87.0581 -10.2454 91.5226 -13.134C94.6741 -15.0305 97.5337 -17.4523 100.423 -19.699C91.1141 -27.402 79.7047 -30.0572 67.449 -29.6487Z" fill="#FAF6EB" stroke="#1C2628" strokeWidth="0.819541" strokeLinecap="round" strokeLinejoin="round"/>
<g id="Vector_3">
<path fillRule="evenodd" clipRule="evenodd" d="M16.16 55.3432C19.0365 48.1977 19.9372 40.159 26.4167 35.1457C31.4142 31.2848 40.7702 27.3663 47.2787 28.6629C53.9615 29.9883 55.1237 40.159 52.7121 45.2012C51.0849 48.5435 47.9179 50.5891 44.8089 52.4331" fill="#FAF6EB"/>
<path d="M16.16 55.3432C19.0365 48.1977 19.9372 40.159 26.4167 35.1457C31.4142 31.2848 40.7702 27.3663 47.2787 28.6629C53.9615 29.9883 55.1237 40.159 52.7121 45.2012C51.0849 48.5435 47.9179 50.5891 44.8089 52.4331" stroke="#1C2628" strokeWidth="0.819541" strokeLinecap="round" strokeLinejoin="round"/>
</g>
<path id="Vector_4" fillRule="evenodd" clipRule="evenodd" d="M38.4763 33.4022L38.3602 40.9127L40.246 43.1337C40.246 43.1337 53.7074 90.6227 50.7482 92.3762C49.0945 93.3698 22.2298 99.5652 19.6478 98.747C17.2108 97.9579 26.4945 50.1767 25.276 49.8845C23.0421 49.3 26.6105 44.6242 26.6105 44.6242L26.8426 36.0031L26.6396 32.6423L38.4763 33.4022Z" fill="#F45B49" stroke="#1C2628" strokeWidth="0.819541" strokeLinecap="round" strokeLinejoin="round"/>
<path id="Vector_5" fillRule="evenodd" clipRule="evenodd" d="M23.4218 27.4842C20.773 19.025 24.2659 12.4778 36.4039 14.0132C37.8301 14.187 39.4893 14.3608 40.7409 15.0851C46.5043 18.4166 46.1259 23.1097 46.1259 23.1097C46.1259 23.1097 55.1784 32.0614 49.0366 35.4509C42.8949 38.8693 31.1936 39.7384 24.8189 37.7395C18.3861 35.7406 23.4218 27.4842 23.4218 27.4842Z" fill="#1C2628" stroke="#1C2628" strokeWidth="0.819541" strokeLinecap="round" strokeLinejoin="round"/>
<path id="Vector_6" fillRule="evenodd" clipRule="evenodd" d="M39.7063 28.8994C40.2255 27.0447 40.0236 23.3062 39.5909 21.6253C38.7545 18.5533 38.1776 18.7562 35.0626 17.9158C31.5726 16.9594 29.6113 16.6986 27.3616 19.4807C26.4963 20.553 23.8716 24.6103 23.4678 26.0883C22.0256 31.3048 24.7946 36.6373 29.6113 37.9704C32.6975 38.8108 35.2357 38.55 37.4854 36.3764C38.7545 35.1013 39.1871 30.7832 39.7063 28.8994Z" fill="#F45B49" stroke="#1C2628" strokeWidth="0.819541" strokeLinecap="round" strokeLinejoin="round"/>
<path id="Vector_7" fillRule="evenodd" clipRule="evenodd" d="M32.6595 28.3167C32.8872 27.5481 32.2326 26.6258 31.2079 26.2569C30.1548 25.888 29.1301 26.1954 28.9024 26.964C28.6747 27.7326 29.3294 28.6549 30.354 29.0238C31.3787 29.3927 32.4034 29.0853 32.6595 28.3167Z" fill="#FAFCFF" stroke="#1C2628" strokeWidth="0.819541" strokeLinecap="round" strokeLinejoin="round"/>
<path id="Vector_8" fillRule="evenodd" clipRule="evenodd" d="M26.4987 25.3449C26.7492 24.6712 26.029 23.8628 24.9019 23.5395C23.7435 23.2161 22.6163 23.5125 22.3658 24.1593C22.1154 24.8329 22.8355 25.6413 23.9626 25.9647C25.0898 26.288 26.2169 26.0185 26.4987 25.3449Z" fill="#FAFCFF" stroke="#1C2628" strokeWidth="0.819541" strokeLinecap="round" strokeLinejoin="round"/>
<path id="Vector_9" fillRule="evenodd" clipRule="evenodd" d="M37.3162 41.4916L38.0914 33.9481C38.0914 33.9481 31.7707 32.6001 30.28 34.1776C28.7595 35.7551 30.3695 40.918 30.3695 40.918L34.1559 41.4629" fill="#FB564C"/>
<g id="Vector_10">
<path fillRule="evenodd" clipRule="evenodd" d="M39.0984 29.5084C39.7889 28.7159 41.17 29.5084 41.4289 30.2735C41.9756 31.8585 40.7096 34.5091 38.0914 32.9242" fill="#F45B49"/>
<path d="M39.0984 29.5084C39.7889 28.7159 41.17 29.5084 41.4289 30.2735C41.9756 31.8585 40.7096 34.5091 38.0914 32.9242" stroke="#1C2628" strokeWidth="0.819541" strokeLinecap="round" strokeLinejoin="round"/>
</g>
<path id="Vector_11" fillRule="evenodd" clipRule="evenodd" d="M29.4741 28.5861C30.0603 28.9111 30.7442 28.852 31.0373 28.4384C31.3305 28.0248 31.1025 27.4044 30.5488 27.0794C29.9626 26.7544 29.2787 26.8135 28.9856 27.2271C28.6924 27.6703 28.9204 28.2611 29.4741 28.5861Z" fill="#1C2628" stroke="#1C2628" strokeWidth="0.819541" strokeLinecap="round" strokeLinejoin="round"/>
<path id="Vector_12" fillRule="evenodd" clipRule="evenodd" d="M24.4468 25.6124C24.8162 25.1658 24.693 24.4039 23.2771 24.1937C22.7538 24.1149 22.8153 24.3251 22.446 24.7717C22.0766 25.2183 22.5691 25.7438 23 25.9802C23.4618 26.2429 24.1082 26.059 24.4468 25.6124Z" fill="#1C2628" stroke="#1C2628" strokeWidth="0.819541" strokeLinecap="round" strokeLinejoin="round"/>
<path id="Vector_13" d="M39.6305 30.7183C39.4766 30.8465 39.3996 30.9748 39.2457 31.103" stroke="#1C2628" strokeWidth="0.819541" strokeLinecap="round" strokeLinejoin="round"/>
<path id="Vector_14" fillRule="evenodd" clipRule="evenodd" d="M32.4071 31.1033C31.6924 32.6351 29.5792 32.0836 28.0875 32.6045C28.0875 32.6045 29.2684 35.1167 31.7545 33.7993C33.4015 32.9415 32.4071 31.1033 32.4071 31.1033Z" fill="#1C2628" stroke="#1C2628" strokeWidth="0.819541" strokeLinecap="round" strokeLinejoin="round"/>
<path id="Vector_15" fillRule="evenodd" clipRule="evenodd" d="M27.7244 25.3318L35.7828 27.7851C35.7828 27.7851 33.1551 30.8157 30.9945 30.2673C27.2281 29.286 27.7244 25.3318 27.7244 25.3318Z" fill="#1C2628" stroke="#1C2628" strokeWidth="0.819541" strokeLinecap="round" strokeLinejoin="round"/>
<path id="Vector_16" fillRule="evenodd" clipRule="evenodd" d="M20.2759 23.4077L27.7028 25.2733C27.7028 25.2733 25.9737 28.5178 22.4303 27.4093C18.8869 26.3007 20.2759 23.4077 20.2759 23.4077Z" fill="#1C2628" stroke="#1C2628" strokeWidth="0.819541" strokeLinecap="round" strokeLinejoin="round"/>
<g id="Vector_17">
<path fillRule="evenodd" clipRule="evenodd" d="M27.318 26.4858C27.318 26.4858 23.2728 29.2268 23.4779 29.8458C24.2401 32.2625 26.2627 30.4352 26.6145 30.5236" fill="#F45B49"/>
<path d="M27.318 26.4858C27.318 26.4858 23.2728 29.2268 23.4779 29.8458C24.2401 32.2625 26.2627 30.4352 26.6145 30.5236" stroke="#1C2628" strokeWidth="0.819541" strokeLinecap="round" strokeLinejoin="round"/>
</g>
<path id="Vector_18" fillRule="evenodd" clipRule="evenodd" d="M92.8179 21.9064C89.1909 11.7616 50.1059 10.3583 50.1059 10.3583L41.8943 3.40015C41.8943 3.40015 32.2899 7.23004 31.2453 8.51642C30.1717 9.8028 40.2984 8.69183 40.2984 8.69183C40.2984 8.69183 42.3586 17.4626 45.8986 19.0413C47.6976 19.8307 49.1774 18.0765 51.5858 18.8367C60.5518 21.6726 72.7096 26.6134 72.7096 26.6134L49.8158 45.7629L65.3395 56.1124C65.3395 56.1124 96.4449 32.0513 92.8179 21.9064Z" fill="#F45B49" stroke="#1C2628" strokeWidth="0.819541" strokeLinecap="round" strokeLinejoin="round"/>
<path id="Vector_19" fillRule="evenodd" clipRule="evenodd" d="M61.3503 63.2288C61.3503 63.2288 63.9474 86.3501 66.311 97.2101C66.3985 97.648 66.486 98.0567 66.6028 98.4362C56.2437 95.7504 47.6355 94.933 37.1306 96.9473C36.8096 87.1091 36.9847 50.1792 36.9847 50.1792L40.9824 42.1218L60.65 34.1812C60.65 34.1812 68.3536 45.3331 73.4893 51.4054C73.3726 51.4929 73.2851 51.6097 73.1683 51.6973C68.0618 56.4267 61.3503 63.2288 61.3503 63.2288Z" fill="#FAF6EB" stroke="#1C2628" strokeWidth="0.819541" strokeLinecap="round" strokeLinejoin="round"/>
<path id="Vector_20" fillRule="evenodd" clipRule="evenodd" d="M25.5795 95.1311C25.6669 96.9612 25.8124 98.617 25.8998 100.36C25.1137 100.505 24.2693 100.592 23.3959 100.621C19.8438 100.796 16.9614 100.767 14.603 100.65C6.24692 100.186 4.5 98.3846 4.5 98.3846L8.08118 84.3248L9.74076 77.8468L7.58623 78.6312L-6.15622 65.7042C-6.15622 65.7042 2.229 54.1426 10.0028 48.5652C17.7766 42.9877 24.939 43.4235 24.939 43.4235C25.1137 44.1788 29.6265 50.1048 29.6265 50.1048C29.6265 50.1048 25.3757 91.2676 25.5795 95.1311Z" fill="#FAF6EB" stroke="#1C2628" strokeWidth="0.819541" strokeLinecap="round" strokeLinejoin="round"/>
<g id="Vector_21">
<path fillRule="evenodd" clipRule="evenodd" d="M53.7797 35.3354C54.4928 45.1029 50.7193 48.916 45.995 53.5797C44.8065 54.7529 38.0914 60.1206 38.0914 61.4992" fill="#FAF6EB"/>
<path d="M53.7797 35.3354C54.4928 45.1029 50.7193 48.916 45.995 53.5797C44.8065 54.7529 38.0914 60.1206 38.0914 61.4992" stroke="#1C2628" strokeWidth="0.819541" strokeLinecap="round" strokeLinejoin="round"/>
</g>
<g id="Vector_22">
<path fillRule="evenodd" clipRule="evenodd" d="M27.2874 60.9999L27.318 61.1145C27.318 61.0859 27.2874 61.0572 27.2874 61.0286C25.333 56.9608 20.7828 51.432 20.4164 46.2756C20.2942 44.6142 20.6301 43.01 21.5768 41.4917" fill="#FAF6EB"/>
<path d="M27.2874 60.9999L27.318 61.1145C27.318 61.0859 27.2874 61.0572 27.2874 61.0286C25.333 56.9608 20.7828 51.432 20.4164 46.2756C20.2942 44.6142 20.6301 43.01 21.5768 41.4917" stroke="#1C2628" strokeWidth="0.819541" strokeLinecap="round" strokeLinejoin="round"/>
</g>
<g id="Vector_23">
<path fillRule="evenodd" clipRule="evenodd" d="M30.0113 16.518C36.7593 15.8285 31.284 25.3317 39.3342 25.3317C39.571 25.3317 42.353 24.882 42.3234 24.5822C42.2938 24.2225 41.6131 24.2524 41.3763 24.0126C40.7548 23.3831 40.5772 22.6936 40.4293 21.8542C40.2221 20.8349 41.11 18.7064 40.2517 17.927C38.8607 16.6379 35.9602 17.837 34.362 17.9869" fill="#1C2628"/>
<path d="M30.0113 16.518C36.7593 15.8285 31.284 25.3317 39.3342 25.3317C39.571 25.3317 42.353 24.882 42.3234 24.5822C42.2938 24.2225 41.6131 24.2524 41.3763 24.0126C40.7548 23.3831 40.5772 22.6936 40.4293 21.8542C40.2221 20.8349 41.11 18.7064 40.2517 17.927C38.8607 16.6379 35.9602 17.837 34.362 17.9869" stroke="#1C2628" strokeWidth="0.819541" strokeLinecap="round" strokeLinejoin="round"/>
</g>
<path id="Vector_24" fillRule="evenodd" clipRule="evenodd" d="M26.9333 60.9132C26.7598 61.9893 26.3839 62.8326 25.8055 63.0071C25.0536 63.2398 24.6777 62.1347 22.3642 60.9423C20.1664 59.8081 18.6915 59.8953 18.4312 58.8775C18.2288 58.1795 18.9229 57.8887 19.0096 57.0453C19.212 54.9223 15.2502 54.108 13.7175 51.2288C12.127 48.2043 18.5469 43.7547 20.4555 45.9068C20.7737 51.1707 25.1114 56.7835 26.9333 60.9132Z" fill="#1C2628" stroke="#1C2628" strokeWidth="0.819541" strokeLinecap="round" strokeLinejoin="round"/>
<path id="Vector_25" d="M41.5542 33.7964C41.5542 35.0661 40.5153 36.1049 39.2456 36.1049C37.9759 36.1049 36.9371 35.0661 36.9371 33.7964C36.9371 32.5266 37.9759 31.4878 39.2456 31.4878" stroke="#FAF6EB" strokeWidth="0.819541" strokeLinecap="round" strokeLinejoin="round"/>
<path id="Vector_26" d="M29.6265 15.011C28.5114 14.7449 27.3962 14.5084 26.2811 14.5675C25.1366 14.6266 23.9921 15.0406 23.2878 15.9276C22.5541 16.8442 22.4074 18.1156 22.3487 19.3279C22.29 20.1854 22.29 21.0724 22.5248 21.9003C22.7595 22.7282 23.3465 23.4969 24.1388 23.7926" stroke="#1C2628" strokeWidth="0.819541" strokeLinecap="round" strokeLinejoin="round"/>
<path id="Vector_27" d="M19.6228 24.1775L35.398 28.0251" stroke="#FAF6EB" strokeWidth="0.819541" strokeLinecap="round" strokeLinejoin="round"/>
<path id="Vector_28" d="M40.7829 28.7808C40.8987 28.9142 35.3981 28.0249 35.3981 28.0249" stroke="#1C2628" strokeWidth="0.819541" strokeLinecap="round" strokeLinejoin="round"/>
</g>
<defs>
<clipPath id="clip0">
<rect width="60.0227" height="60.0227" fill="white" transform="translate(0 0.707031)"/>
</clipPath>
</defs>
</svg>
