<svg width="61" height="61" viewBox="0 0 61 61" fill="none" xmlns="http://www.w3.org/2000/svg">
<g id="Hector" clipPath="url(#clip0)">
<rect width="60.151" height="60.151" transform="translate(0.399658 0.806152)" fill="white"/>
<path id="backdrop" d="M114.031 78.5243C103.583 93.7241 89.4575 109.872 65.8033 122.564C42.1491 135.256 8.81252 144.462 -5.92541 131.219C-20.694 118.13 -16.6495 82.4084 -14.0451 54.7306C-11.4406 27.2057 -10.0925 7.75479 -1.97283 -8.39313C6.14682 -24.3576 20.9154 -37.0496 36.2968 -38.3952C51.4943 -39.7715 67.274 -29.6179 91.8475 -29.4038C116.452 -29.1897 149.849 -38.9152 159.072 -29.8625C168.295 -20.8099 153.189 7.0208 142.281 27.9703C131.404 48.8892 124.479 63.2939 114.031 78.5243Z" fill="#F3A13B"/>
<g id="hair">
<path fillRule="evenodd" clipRule="evenodd" d="M25.7827 18.8338C25.8439 15.4163 20.3397 13.7686 15.6916 16.3012C11.0436 18.8338 10.7684 26.218 9.94278 27.7742C5.35592 36.501 12.2362 43.4275 22.786 44.7396C25.8439 45.1057 35.8738 41.0475 35.4763 37.2944C35.0788 33.5107 23.8562 35.372 23.0612 31.924" fill="#1C2628"/>
<path d="M25.7827 18.8338C25.8439 15.4163 20.3397 13.7686 15.6916 16.3012C11.0436 18.8338 10.7684 26.218 9.94278 27.7742C5.35592 36.501 12.2362 43.4275 22.786 44.7396C25.8439 45.1057 35.8738 41.0475 35.4763 37.2944C35.0788 33.5107 23.8562 35.372 23.0612 31.924" stroke="#1C2628" strokeWidth="0.821292" strokeLinecap="round" strokeLinejoin="round"/>
</g>
<path id="body" fillRule="evenodd" clipRule="evenodd" d="M65.4331 94.6301L64.0228 83.8207L63.471 79.6255L62.214 70.041L60.7424 58.9866C60.7424 58.9866 66.7513 48.0853 69.2959 33.3257C70.1237 28.5794 70.4609 22.6388 70.5529 16.7595C70.5836 15.1978 70.5836 13.6361 70.5529 12.105C70.4916 1.54057 69.7558 -7.67651 69.7558 -7.67651L51.9743 -6.78849C51.9743 -6.78849 51.9743 7.90985 49.583 20.4034C47.1917 32.8664 43.4208 43.094 43.4208 43.094L37.6571 48.0853L23.248 51.3312C23.248 51.3312 4.11751 55.1283 1.17437 64.1004C-0.235891 68.3568 -1.40089 73.7462 -2.35128 79.0437C-2.53522 80.0542 -2.68851 81.0341 -2.8418 82.014C-3.39364 85.3211 -3.82285 88.5058 -4.16008 91.2005C-4.31337 92.3029 -4.436 93.3134 -4.52798 94.232C-4.89587 97.2635 -5.07982 99.1927 -5.07982 99.1927L-10.7822 133.826L8.53223 134.989L12.2112 112.329L14.1119 98.274L15.3076 116.525C25.2101 116.341 30.2993 111.166 40.1711 110.676C48.2647 110.278 49.8589 109.91 52.5261 109.267C52.5261 109.267 62.306 106.695 66.8127 105.011L65.4331 94.6301Z" fill="#FAF6EB" stroke="#1C2628" strokeWidth="0.821292" strokeLinecap="round" strokeLinejoin="round"/>
<g id="stars">
<path id="Vector" d="M52.7491 43.4561L48.7799 40.907L49.1768 45.5804L45.5129 48.5544L50.1233 49.6469L51.8331 54.0168L54.2757 50.011L59.0083 49.7379L55.9245 46.1873L57.1153 41.6353L52.7491 43.4561Z" fill="#49574E"/>
</g>
<path id="neck" fillRule="evenodd" clipRule="evenodd" d="M24.881 37.5968L24.3059 50.3674C24.3059 50.3674 32.9927 51.5733 35.5352 50.4602C38.0777 49.347 42.0427 47.2752 42.0427 47.2752L37.0183 35.123L24.881 37.5968Z" fill="#F45B49" stroke="#1C2628" strokeWidth="0.821292" strokeLinecap="round" strokeLinejoin="round"/>
<g id="collar">
<path id="Vector_2" fillRule="evenodd" clipRule="evenodd" d="M35.1023 54.4023L31.6321 57.1756L34.9155 58.6438L35.1023 54.4023Z" fill="#1C2628" stroke="#1C2628" strokeWidth="0.821292" strokeLinecap="round" strokeLinejoin="round"/>
<path id="Vector_3" fillRule="evenodd" clipRule="evenodd" d="M35.4879 50.0521L23.9492 46.3052L22.5376 50.5602C22.0159 52.1479 22.8138 53.8944 24.3482 54.4659L31.2836 57.1015L35.2731 54.4342L35.4879 50.0521Z" fill="#FAF6EB" stroke="#1C2628" strokeWidth="0.821292" strokeLinecap="round" strokeLinejoin="round"/>
<path id="Vector_4" fillRule="evenodd" clipRule="evenodd" d="M38.5096 57.4871L41.2716 54.4695L37.4158 54.0168L38.5096 57.4871Z" fill="#1C2628" stroke="#1C2628" strokeWidth="0.821292" strokeLinecap="round" strokeLinejoin="round"/>
<path id="Vector_5" fillRule="evenodd" clipRule="evenodd" d="M41.7813 44.7627L35.8735 50.0233L37.2963 53.9321L41.6885 54.4023L44.163 52.1099C45.3075 51.0519 45.4622 49.318 44.4724 48.113L41.7813 44.7627Z" fill="#FAF6EB" stroke="#1C2628" strokeWidth="0.821292" strokeLinecap="round" strokeLinejoin="round"/>
</g>
<path id="facee" fillRule="evenodd" clipRule="evenodd" d="M24.6068 40.7277C18.1613 38.756 14.4428 32.4161 16.3021 26.5616C17.2317 23.6495 16.488 20.0093 19.1839 18.7353C21.9109 17.4613 28.1084 18.5533 31.3312 19.524C37.7767 21.4957 41.4952 27.8356 39.6359 33.6902C38.6133 36.8753 37.4358 39.9087 34.399 41.1221C31.827 42.1231 27.5507 41.6378 24.6068 40.7277Z" fill="#F45B49" stroke="#1C2628" strokeWidth="0.821292" strokeLinecap="round" strokeLinejoin="round"/>
<path id="neck2" fillRule="evenodd" clipRule="evenodd" d="M24.7362 43.3461L24.3059 38.674C24.3059 38.674 29.5307 34.7183 31.7436 36.2445C33.9565 37.8019 33.5262 44.5919 33.5262 44.5919L29.2234 46.305" fill="#FB564C"/>
<g id="Hair">
<g id="Vector_6">
<path fillRule="evenodd" clipRule="evenodd" d="M19.1106 16.5753C20.1119 16.0274 17.7148 15.3272 18.9285 15.4794C22.8124 15.9056 22.9035 19.1932 21.6897 21.8111C20.5367 24.3073 18.6858 26.4686 18.6858 26.4686C18.6858 26.4686 23.8744 33.957 20.6884 37.2142C18.5948 39.345 14.8626 38.9493 13.6488 36.4227C12.6475 34.3527 12.5868 32.0697 12.9206 29.8475C13.2544 27.5644 14.5288 25.4031 14.7715 23.1505" fill="#1C2628"/>
<path d="M19.1106 16.5753C20.1119 16.0274 17.7148 15.3272 18.9285 15.4794C22.8124 15.9056 22.9035 19.1932 21.6897 21.8111C20.5367 24.3073 18.6858 26.4686 18.6858 26.4686C18.6858 26.4686 23.8744 33.957 20.6884 37.2142C18.5948 39.345 14.8626 38.9493 13.6488 36.4227C12.6475 34.3527 12.5868 32.0697 12.9206 29.8475C13.2544 27.5644 14.5288 25.4031 14.7715 23.1505" stroke="#1C2628" strokeWidth="0.821292" strokeLinecap="round" strokeLinejoin="round"/>
</g>
<g id="Vector_7">
<path fillRule="evenodd" clipRule="evenodd" d="M15.2234 21.9145C6.21637 20.1134 4.87869 27.2871 8.92146 29.7597C4.01663 30.9808 3.57074 40.6271 12.013 40.505C10.8537 41.5735 16.1449 46.7629 18.1366 39.1313" fill="#1C2628"/>
<path d="M15.2234 21.9145C6.21637 20.1134 4.87869 27.2871 8.92146 29.7597C4.01663 30.9808 3.57074 40.6271 12.013 40.505C10.8537 41.5735 16.1449 46.7629 18.1366 39.1313" stroke="#1C2628" strokeWidth="0.821292" strokeLinecap="round" strokeLinejoin="round"/>
</g>
</g>
<g id="ear">
<g id="Vector_8">
<path fillRule="evenodd" clipRule="evenodd" d="M21.1426 36.7295C21.3636 36.4211 19.2167 37.1921 20.448 39.8133C21.3004 41.6635 25.9415 42.2186 25.8468 38.8573" fill="#F45B49"/>
<path d="M21.1426 36.7295C21.3636 36.4211 19.2167 37.1921 20.448 39.8133C21.3004 41.6635 25.9415 42.2186 25.8468 38.8573" stroke="#1C2628" strokeWidth="0.821292" strokeLinecap="round" strokeLinejoin="round"/>
</g>
<path id="Vector_9" d="M22.3779 38.9146L22.7165 38.9788H23.2808L23.9203 38.5933" stroke="#1C2628" strokeWidth="0.821292" strokeLinecap="round" strokeLinejoin="round"/>
</g>
<g id="Face">
<g id="nose">
<path fillRule="evenodd" clipRule="evenodd" d="M28.1617 21.5076C30.3489 20.9883 34.9056 18.969 35.665 19.9787C36.6675 21.3057 33.7512 23.4404 33.2955 23.5558" fill="#F45B49"/>
<path d="M28.1617 21.5076C30.3489 20.9883 34.9056 18.969 35.665 19.9787C36.6675 21.3057 33.7512 23.4404 33.2955 23.5558" stroke="#1C2628" strokeWidth="0.821292" strokeLinecap="round" strokeLinejoin="round"/>
</g>
<path id="mouth" fillRule="evenodd" clipRule="evenodd" d="M33.0421 33.353C31.3165 34.3037 29.3185 31.9729 29.3185 31.9729L33.7989 28.5686C33.8292 28.5379 36.2813 31.5742 33.0421 33.353Z" fill="#1C2628" stroke="#1C2628" strokeWidth="0.821292" strokeLinecap="round" strokeLinejoin="round"/>
<g id="eyes">
<g id="eye">
<path id="Vector_10" fillRule="evenodd" clipRule="evenodd" d="M23.7499 29.8892C22.9744 29.318 22.9446 27.8396 23.6902 26.5965C24.406 25.3197 25.6288 24.7485 26.4043 25.3197C27.1797 25.8909 27.2096 27.3692 26.4639 28.6124C25.7183 29.8892 24.5253 30.4603 23.7499 29.8892Z" fill="#FAFCFF" stroke="#1C2628" strokeWidth="0.821292" strokeLinecap="round" strokeLinejoin="round"/>
<path id="Vector_11" fillRule="evenodd" clipRule="evenodd" d="M25.997 25.6238C25.4344 25.3157 24.7156 25.5313 24.4343 26.1167C24.153 26.6712 24.3405 27.3798 24.9344 27.657C25.4969 27.9651 26.2158 27.7495 26.4971 27.1641C26.7784 26.6096 26.5596 25.901 25.997 25.6238Z" fill="#1C2628" stroke="#1C2628" strokeWidth="0.821292" strokeLinecap="round" strokeLinejoin="round"/>
</g>
<g id="eye_2">
<path id="Vector_12" fillRule="evenodd" clipRule="evenodd" d="M27.6405 21.4123C26.9074 20.9297 26.7853 19.7714 27.3962 18.8061C28.0071 17.8729 29.0761 17.4868 29.8398 18.0017C30.5728 18.4843 30.695 19.6426 30.0841 20.6079C29.4732 21.541 28.3736 21.895 27.6405 21.4123Z" fill="#FAFCFF" stroke="#1C2628" strokeWidth="0.821292" strokeLinecap="round" strokeLinejoin="round"/>
<path id="Vector_13" fillRule="evenodd" clipRule="evenodd" d="M29.7821 18.3064C29.1972 18.0243 28.5091 18.1497 28.2682 18.6198C27.993 19.0585 28.2682 19.6539 28.8531 19.936C29.4381 20.218 30.1262 20.0927 30.3671 19.6226C30.6423 19.1839 30.3671 18.5884 29.7821 18.3064Z" fill="#1C2628" stroke="#1C2628" strokeWidth="0.821292" strokeLinecap="round" strokeLinejoin="round"/>
</g>
</g>
</g>
<g id="highlight">
<path id="Vector_14" d="M22.7355 18.543C22.973 17.2083 21.6499 15.9737 20.8357 15.0728" stroke="#FAF6EB" strokeWidth="0.821292" strokeLinecap="round" strokeLinejoin="round"/>
<path id="Vector_15" d="M12.6514 35.5086C11.8505 33.8848 10.68 27.9718 12.713 26.9914C14.5612 26.0723 15.3621 30.6679 14.5304 30.1471C11.3577 28.125 13.8219 21.1703 16.5942 19.6997" stroke="#FAF6EB" strokeWidth="0.821292" strokeLinecap="round" strokeLinejoin="round"/>
</g>
<path id="nechshadow" fillRule="evenodd" clipRule="evenodd" d="M31.6319 41.4616L38.3847 37.8223L39.7291 42.4084C39.7291 42.4084 37.3458 42.5859 35.1458 42.2012C32.9763 41.8166 31.6319 41.4616 31.6319 41.4616Z" fill="#1C2628" stroke="#1C2628" strokeWidth="0.821292" strokeLinecap="round" strokeLinejoin="round"/>
<g id="Earphones">
<path id="Vector_16" fillRule="evenodd" clipRule="evenodd" d="M22.7635 38.0151C22.7635 37.2624 23.449 36.6655 24.3058 36.6655C25.1627 36.6655 25.8482 37.2624 25.8482 38.0151C25.8482 38.7677 25.1627 39.3646 24.3058 39.3646C23.449 39.3646 22.7635 38.7417 22.7635 38.0151Z" fill="#1C2628" stroke="#1C2628" strokeWidth="0.821292" strokeLinecap="round" strokeLinejoin="round"/>
<path id="Vector_17" d="M25.2042 37.822C27.5568 40.1796 30.9483 45.9971 33.2398 52.1514C35.2564 57.6015 27.0985 70.1243 26.7013 74.9927C26.243 80.2284 34.6453 96.303 29.8178 105.611C25.7236 113.511 17.6574 112.714 13.4409 121.624C9.2245 130.534 5.13029 148.844 -14.6381 151.569" stroke="#1C2628" strokeWidth="0.821292" strokeLinecap="round" strokeLinejoin="round"/>
<path id="Vector_18" d="M108.547 33.1951C111.342 40.0878 84.377 42.753 72.0311 57.7944C59.6851 72.8359 35.0545 58.1008 31.2463 63.9519" stroke="#1C2628" strokeWidth="0.821292" strokeLinecap="round" strokeLinejoin="round"/>
</g>
</g>
<defs>
<clipPath id="clip0">
<rect width="60.151" height="60.151" fill="white" transform="translate(0.399658 0.806152)"/>
</clipPath>
</defs>
</svg>
