<svg width="61" height="61" viewBox="0 0 61 61" fill="none" xmlns="http://www.w3.org/2000/svg">
<g id="Kathy" clipPath="url(#clip0)">
<rect width="60.2195" height="60.2195" transform="translate(0.636414)" fill="white"/>
<path id="backdrop" d="M84.6018 -71.3318C99.811 -58.5159 111.701 -43.5768 121.505 -26.3602C131.272 -9.18219 139.108 10.2734 131.156 23.6297C123.358 36.9861 99.9654 44.2433 84.4859 54.0483C69.1608 63.6989 61.7492 76.013 51.1722 80.1048C40.711 84.1967 27.2388 80.375 9.13434 80.375C-8.85431 80.375 -31.4752 84.1967 -40.8556 75.3567C-50.2359 66.6326 -46.6845 45.3242 -47.611 25.9073C-48.6532 6.33592 -54.4822 -11.3825 -51.3168 -27.9043C-48.2672 -44.426 -36.4935 -59.9055 -21.0526 -72.7215C-5.72752 -85.4216 13.342 -95.6126 31.9869 -95.3424C50.7476 -94.995 69.3925 -84.2636 84.6018 -71.3318Z" fill="#49574E"/>
<g id="Lines">
<path id="Vector" d="M50.6227 -33.9697C50.1818 -30.7576 54.6931 -25.7242 47.3326 -19.2337C45.4331 -17.5449 46.0775 -14.3658 45.6366 -11.8822C44.4494 -5.42488 42.1429 0.833795 38.8527 6.56263" stroke="#1C2628" strokeWidth="0.822228" strokeLinecap="round" strokeLinejoin="round"/>
<path id="Vector_2" d="M77.4549 -15.0549C75.4564 -10.6402 73.4246 -6.19174 70.4269 -2.4173C67.4292 1.35714 63.3323 4.45758 58.6026 5.23269C55.3384 5.77189 52.0076 5.16529 48.7434 5.4686C45.4792 5.7719 41.9152 7.28842 40.7828 10.4226" stroke="#1C2628" strokeWidth="0.822228" strokeLinecap="round" strokeLinejoin="round"/>
<path id="Vector_3" d="M40.0107 12.0429C46.9721 9.33801 54.7954 11.6192 61.9557 13.7375C69.1159 15.8558 77.1712 17.746 83.8343 14.3567C85.3591 13.5746 86.7514 12.5643 88.3094 11.88C89.9006 11.2282 91.757 10.9675 93.2818 11.7496" stroke="#1C2628" strokeWidth="0.822228" strokeLinecap="round" strokeLinejoin="round"/>
<path id="Vector_4" d="M40.0107 14.6688C43.3105 13.6514 45.5447 10.1068 44.926 6.85769C44.7198 5.80746 44.2729 4.82287 44.1011 3.80546C43.6542 1.40962 44.5135 -0.986232 44.7885 -3.38207C45.0635 -5.77791 44.376 -8.66604 42.0731 -9.65063" stroke="#1C2628" strokeWidth="0.822228" strokeLinecap="round" strokeLinejoin="round"/>
</g>
<g id="Radio">
<path id="Vector_5" fillRule="evenodd" clipRule="evenodd" d="M44.643 -0.385986H-42.9841V43.6206H44.643V-0.385986V-0.385986Z" fill="#1C2628" stroke="#1C2628" strokeWidth="0.822228" strokeLinecap="round" strokeLinejoin="round"/>
<path id="Vector_6" d="M24.5698 -0.771973L24.1838 45.5507" stroke="#FAF6EB" strokeWidth="0.822228" strokeLinecap="round" strokeLinejoin="round"/>
<path id="Vector_7" d="M12.6032 24.5126C12.6032 21.403 9.91875 18.9153 6.61982 18.9153C3.3209 18.9153 0.636475 21.4357 0.636475 24.5126C0.636475 27.5895 3.3209 30.1099 6.61982 30.1099C9.91875 30.1099 12.6032 27.5895 12.6032 24.5126Z" stroke="#FAF6EB" strokeWidth="0.822228" strokeLinecap="round" strokeLinejoin="round"/>
<path id="Vector_8" d="M24.1838 9.26468L-43.3701 8.87866" stroke="#FAF6EB" strokeWidth="0.822228" strokeLinecap="round" strokeLinejoin="round"/>
<path id="Vector_9" d="M14.1472 2.31616H-35.2636V5.40434H14.1472V2.31616Z" stroke="#FAF6EB" strokeWidth="0.822228" strokeLinecap="round" strokeLinejoin="round"/>
<path id="Vector_10" d="M40.0107 12.1595C40.0107 9.70096 37.8471 7.72046 35.2026 7.72046C32.5238 7.72046 30.3602 9.70096 30.3602 12.1595C30.3602 14.6181 32.5238 16.5985 35.2026 16.5985C37.8471 16.6327 40.0107 14.6181 40.0107 12.1595Z" stroke="#FAF6EB" strokeWidth="0.822228" strokeLinecap="round" strokeLinejoin="round"/>
<path id="Vector_11" d="M17.2355 24.5125C17.2355 19.0851 12.5849 14.6689 6.81287 14.6689C1.07383 14.6689 -3.60974 19.0851 -3.60974 24.5125C-3.60974 29.94 1.04085 34.3561 6.81287 34.3561C12.5519 34.3561 17.2355 29.94 17.2355 24.5125Z" stroke="#FAF6EB" strokeWidth="0.822228" strokeLinecap="round" strokeLinejoin="round"/>
</g>
<g id="cat">
<g id="Group">
<g id="Group_2">
<path id="Vector_12" d="M31.1534 43.315C28.9576 38.2248 26.9282 35.4301 27.4272 33.3674C28.0926 30.6726 29.3568 27.4787 30.5213 27.8447C31.8853 29.3418 32.2846 32.9349 31.6857 34.1326C31.7855 35.8626 35.5782 36.6611 35.9774 40.2209C31.8188 40.9529 31.1534 43.315 31.1534 43.315Z" fill="#FB564C"/>
</g>
<g id="Group_3">
<path id="Vector_13" d="M44.9269 39.2558C44.4944 34.6647 54.442 28.4765 54.8745 28.1771C55.307 27.3787 56.3383 23.1202 58.7005 21.124C60.1976 19.7932 62.4266 19.7267 62.9922 21.0575C63.0255 21.6563 61.8611 21.7561 61.2955 23.6525C60.7299 25.5488 59.9647 28.5098 60.7299 32.3691C56.538 36.4279 48.7529 40.5866 48.5866 40.5201C46.3908 40.1541 44.9269 39.2558 44.9269 39.2558Z" fill="#FB564C"/>
</g>
<g id="Group_4">
<path id="Vector_14" d="M15.051 42.217C13.5206 42.8824 12.3229 43.7807 10.6927 43.4813C9.96073 43.3149 9.92748 44.4794 11.3913 45.5772C12.8219 46.7084 13.9531 47.4736 14.9179 46.9746C15.9825 44.7122 15.051 42.217 15.051 42.217Z" fill="#FB564C"/>
</g>
<g id="Group_5">
<path id="Vector_15" d="M67.8162 37.892C67.9825 38.2247 69.7791 41.0859 69.0471 45.7103C68.6812 47.9394 67.8162 49.7692 66.2192 51.2663C64.4892 52.8965 61.9275 54.1608 58.2678 55.2586C53.8763 56.5562 42.2985 56.4564 33.216 56.1569C27.4936 55.9573 22.7694 55.6579 21.4386 55.5248C18.0451 55.1921 14.7182 51.1 13.8865 45.9099C13.088 40.9195 15.5499 39.2561 17.5794 38.2247C20.9063 36.5612 25.1981 33.2343 27.3606 36.528C28.891 38.8568 29.5231 39.6553 31.0867 39.9214C31.985 40.0878 39.2045 38.1914 49.2851 38.7238C49.2851 38.7238 47.9876 36.0955 52.0465 32.1697C56.1053 28.2439 61.7944 29.9074 63.8904 31.7372C63.3913 30.6726 63.9902 25.6156 65.0215 23.9521C67.1175 20.5587 69.8123 22.6214 69.2467 23.8523C68.6812 25.0833 68.5148 30.0737 69.2467 33.2343C69.9121 36.3616 70.4777 37.7257 67.8162 37.892Z" fill="#FB564C"/>
</g>
<g id="Group_6">
<path id="Vector_16" d="M19.8084 48.9041C18.145 50.002 15.4834 51.6322 14.5851 54.5266C14.9178 55.0922 17.3798 55.6578 18.8436 55.6911C20.4073 55.7243 22.7361 55.3916 23.4015 54.7928C24.0669 53.9278 22.5698 47.1076 19.8084 48.9041Z" fill="#FB564C"/>
</g>
<g id="Group_7">
<path id="Vector_17" d="M19.9083 51.8319C19.0433 51.6988 16.8143 53.6617 16.7145 54.1608C17.5129 54.7263 21.2058 54.3271 21.4055 53.9944C21.472 53.4621 19.9083 51.8319 19.9083 51.8319Z" fill="#1C2628" stroke="#1C2628" strokeWidth="0.822228" strokeLinecap="round" strokeLinejoin="round"/>
</g>
<g id="Group_8">
<path id="Vector_18" d="M36.044 45.1446C37.1419 44.0135 37.6409 44.08 36.7094 43.2483C33.7152 40.5535 32.8834 38.5906 32.8834 37.3929C32.8834 36.1619 36.1106 33.7665 38.506 34.0327C40.5687 34.2656 42.831 33.9994 43.1304 35.0308C42.465 37.1267 40.7683 37.9584 39.5373 38.5906C43.1304 39.389 45.5923 41.2189 45.8585 42.0173C46.291 43.9137 43.6294 48.3052 41.4337 49.0372C39.2379 49.7358 34.6134 46.6418 36.044 45.1446Z" fill="#FB564C"/>
</g>
</g>
<path id="Vector_19" d="M27.1942 41.1857C27.3273 41.6182 24.3663 44.1799 24.3663 44.1799C22.603 44.7122 22.3701 43.5811 21.6049 42.217C21.0061 41.1524 21.0394 38.2912 21.4053 37.1268C21.8046 35.7295 23.335 35.3635 23.8673 35.8958C23.8673 35.8958 25.5307 37.2931 26.4623 38.0916C26.8615 38.2247 28.0592 39.7551 27.1942 41.1857Z" fill="#FB564C"/>
<g id="Group_9">
<g id="Group_10">
<path id="Vector_20" d="M20.9064 39.3558C21.3389 39.1562 21.6051 38.757 21.472 38.4576C21.3389 38.1581 20.8731 38.0583 20.4406 38.2247C20.0081 38.391 19.742 38.8235 19.8751 39.1229C20.0082 39.4556 20.4739 39.5554 20.9064 39.3558Z" fill="#1C2628" stroke="#1C2628" strokeWidth="0.822228" strokeLinecap="round" strokeLinejoin="round"/>
</g>
<g id="Group_11">
<path id="Vector_21" d="M23.1355 44.6124C23.568 44.4128 23.8342 44.0136 23.7011 43.7141C23.568 43.4147 23.1022 43.3149 22.6697 43.4813C22.2372 43.6809 21.9711 44.0801 22.1041 44.3795C22.2372 44.679 22.6697 44.7788 23.1355 44.6124Z" fill="#1C2628" stroke="#1C2628" strokeWidth="0.822228" strokeLinecap="round" strokeLinejoin="round"/>
</g>
<g id="Group_12">
<path id="Vector_22" d="M24.0671 40.3871C23.0025 39.8216 22.1374 39.0896 22.8361 40.7531C23.5348 42.4498 23.8009 41.8177 24.0671 40.3871Z" fill="#1C2628" stroke="#1C2628" strokeWidth="0.822228" strokeLinecap="round" strokeLinejoin="round"/>
</g>
<g id="Group_13">
<path id="Vector_23" d="M25.165 41.3852C25.2981 41.1191 25.2981 40.8197 25.1983 40.5868C25.1983 40.5535 25.165 40.5535 25.165 40.5202C25.0652 40.3539 24.9654 40.1875 24.6327 40.0877C24.7658 39.8216 24.6992 39.5554 24.6327 39.3225C24.5329 39.0564 24.3 38.8235 24.0005 38.6904" stroke="#1C2628" strokeWidth="0.822228" strokeLinecap="round" strokeLinejoin="round"/>
</g>
<g id="Group_14">
<path id="Vector_24" d="M23.8341 40.487L24.433 40.2542" stroke="#1C2628" strokeWidth="0.822228" strokeLinecap="round" strokeLinejoin="round"/>
</g>
</g>
<path id="Vector_25" d="M42.099 36.5281C41.4669 37.5262 39.7702 38.1915 39.504 38.5575C39.2379 38.99 44.0287 40.9529 45.5591 42.9158C43.9621 45.7437 41.8329 48.372 39.1381 50.2018" stroke="#1C2628" strokeWidth="0.822228" strokeLinecap="round" strokeLinejoin="round"/>
<path id="Vector_26" d="M33.6486 36.3948C32.8168 37.0602 32.6505 37.2598 32.6172 38.3244C32.584 38.7902 36.1105 42.1171 36.6761 43.714" stroke="#1C2628" strokeWidth="0.822228" strokeLinecap="round" strokeLinejoin="round"/>
<path id="Vector_27" d="M60.6965 30.1733C58.2679 30.872 54.708 30.5393 53.9428 32.9347C53.0113 35.9289 52.978 39.2226 53.9428 42.2169" stroke="#1C2628" strokeWidth="0.822228" strokeLinecap="round" strokeLinejoin="round"/>
<path id="Vector_28" d="M53.9429 42.3167C51.9134 42.849 49.884 43.3813 47.8546 43.9136" stroke="#1C2628" strokeWidth="0.822228" strokeLinecap="round" strokeLinejoin="round"/>
<path id="Vector_29" d="M30.0886 42.3167C29.889 43.1151 32.2179 48.7376 32.0183 49.5361C31.9185 49.9021 31.8187 50.3013 31.5192 50.5009C31.2198 50.7006 30.6875 50.5342 30.6875 50.1682C30.5877 50.6673 30.4546 51.1996 30.0554 51.499C29.6562 51.7984 28.891 51.5323 28.9575 51.0332C28.9908 51.4657 28.7246 51.8982 28.3254 52.0313C27.9261 52.1644 27.4271 51.9981 27.2275 51.6654C27.3606 52.0979 27.0611 52.5969 26.6952 52.8298C26.3292 53.0627 25.8302 53.1292 25.3644 53.1957C23.9006 53.3621 22.4367 53.3954 20.9728 53.3288" stroke="#1C2628" strokeWidth="0.822228" strokeLinecap="round" strokeLinejoin="round"/>
<path id="Vector_30" d="M66.2193 51.2664C64.4893 52.8966 61.9276 54.1609 58.2679 55.2588C53.8764 56.5563 42.2986 56.4565 33.2161 56.157C33.6818 54.8595 34.5136 53.6618 35.5449 52.9964C37.8405 51.5326 39.8034 53.4289 46.3575 53.2958C49.2852 53.2293 51.115 53.196 53.3108 52.2645C57.4362 50.5012 57.7689 47.7066 60.2641 47.5402C62.3601 47.3739 64.8553 49.1704 66.2193 51.2664Z" fill="#1C2628" stroke="#1C2628" strokeWidth="0.822228" strokeLinecap="round" strokeLinejoin="round"/>
</g>
</g>
<defs>
<clipPath id="clip0">
<rect width="60.2195" height="60.2195" fill="white" transform="translate(0.636414)"/>
</clipPath>
</defs>
</svg>
