<svg width="62" height="62" viewBox="0 0 62 62" fill="none" xmlns="http://www.w3.org/2000/svg">
<g id="Maiden" clipPath="url(#clip0)">
<rect width="60.8826" height="60.8826" transform="translate(0.904358 0.912354)" fill="white"/>
<path id="Vector" d="M28.1621 -9.66874C44.6706 1.57112 65.5893 3.63956 84.7907 13.7476C104.148 23.8167 121.906 41.7302 115.31 56.2484C108.714 70.6104 77.7268 81.421 61.0231 95.9391C44.5145 110.301 42.1339 128.215 32.2209 142.421C20.0834 151.202 2.83337 163.027 -11.1774 164.198C-27.0615 161.232 -40.9162 144.645 -56.1759 133.249C-71.2795 121.697 -87.6319 115.492 -98.0132 104.096C-108.551 92.856 -112.961 76.2694 -119.088 56.5606C-125.215 36.7347 -132.943 13.6306 -126.815 -4.7513C-120.532 -22.977 -100.55 -36.4415 -79.163 -45.1836C-57.9321 -53.9257 -35.6085 -57.7894 -18.1243 -49.6327C-0.796159 -41.3589 11.6535 -20.9086 28.1621 -9.66874Z" fill="#F3A13B"/>
<g id="Group 35">
<path id="Vector_2" fillRule="evenodd" clipRule="evenodd" d="M51.7767 47.9871C51.7767 47.9871 75.0186 61.026 82.2552 70.9682C87.3403 77.9766 95.8808 93.4603 95.8808 93.4603C95.8808 93.4603 99.6621 97.535 98.4234 100.99C97.0217 104.902 98.8798 104.706 99.1732 105.619C102.335 116.018 88.5138 108.879 88.5138 108.879L86.1994 96.9808L66.478 76.3467L44.866 64.9377L51.7767 47.9871Z" fill="#F45B49" stroke="#1C2628" strokeWidth="0.831281" strokeLinecap="round" strokeLinejoin="round"/>
<path id="Vector_3" fillRule="evenodd" clipRule="evenodd" d="M10.4107 60.7978L5.19515 91.8956L-8.07196 87.6253C-8.07196 87.6253 -7.71338 68.5885 -4.51884 57.2446C-1.32431 45.9008 8.52009 44.9229 8.52009 44.9229L10.4107 60.7978Z" fill="#F45B49" stroke="#1C2628" strokeWidth="0.831281" strokeLinecap="round" strokeLinejoin="round"/>
<path id="Vector_4" fillRule="evenodd" clipRule="evenodd" d="M40.0416 49.2908L36.2277 45.0206L30.2298 44.6946L26.2855 50.4643L23.6125 45.0858L17.5168 44.7272L13.0836 47.2046L14.1267 83.3224L41.8671 84.8871L40.0416 49.2908Z" fill="#FAF6EB" stroke="#1C2628" strokeWidth="0.831281" strokeLinecap="round" strokeLinejoin="round"/>
<path id="Vector_5" fillRule="evenodd" clipRule="evenodd" d="M36.2279 28.8522C38.9335 20.1488 35.3804 13.4337 22.9608 14.9984C21.5265 15.194 19.7989 15.3569 18.495 16.1067C12.6274 19.5294 14.1921 28.4285 13.5402 29.2434C11.9755 31.134 13.9314 33.7744 12.3341 37.0668C9.04176 43.9122 11.3888 52.6809 11.3888 52.6809L42.3562 51.7682C42.3562 51.7682 43.6275 48.704 42.0954 42.9669C41.5413 40.9458 39.0965 41.0436 38.6401 35.4695C38.1511 29.9279 36.2279 28.8522 36.2279 28.8522Z" fill="#1C2628" stroke="#1C2628" strokeWidth="0.831281" strokeLinecap="round" strokeLinejoin="round"/>
<path id="Vector_6" fillRule="evenodd" clipRule="evenodd" d="M20.9723 34.7197L21.0701 42.3801L19.1469 44.6293C19.1469 44.6293 18.2015 52.2245 21.2005 54.0499C24.5254 56.0058 31.925 52.1593 34.4676 51.5073C36.7494 50.9206 33.0985 46.1614 33.0985 46.1614L32.8377 37.3927L33.0333 33.97L20.9723 34.7197Z" fill="#F45B49" stroke="#1C2628" strokeWidth="0.831281" strokeLinecap="round" strokeLinejoin="round"/>
<path id="Vector_7" fillRule="evenodd" clipRule="evenodd" d="M19.4077 30.1562C18.8861 28.233 19.0491 24.4191 19.5381 22.6588C20.3856 19.4969 21.2983 20.8986 24.4929 20.0184C28.0786 19.0405 29.8062 17.6062 32.1533 20.4748C33.066 21.5831 35.739 25.7556 36.1627 27.255C37.6296 32.6336 34.7936 38.0774 29.8388 39.4465C26.6443 40.3266 24.0365 40.0332 21.7221 37.784C20.4182 36.5453 19.9618 32.0795 19.4077 30.1562Z" fill="#F45B49" stroke="#1C2628" strokeWidth="0.831281" strokeLinecap="round" strokeLinejoin="round"/>
<path id="Vector_8" fillRule="evenodd" clipRule="evenodd" d="M26.6442 29.6673C26.3834 28.9176 27.068 28.0374 28.1763 27.6789C29.252 27.3203 30.3277 27.6463 30.5885 28.3634C30.8167 29.1131 30.1647 29.9933 29.0564 30.3518C27.9481 30.743 26.8724 30.417 26.6442 29.6673Z" fill="#FAFCFF" stroke="#1C2628" strokeWidth="0.831281" strokeLinecap="round" strokeLinejoin="round"/>
<path id="Vector_9" fillRule="evenodd" clipRule="evenodd" d="M33.0984 26.701C32.8702 25.9513 33.5548 25.0711 34.6305 24.7126C35.7062 24.354 36.7819 24.68 37.0427 25.3971C37.2709 26.1468 36.6189 27.027 35.5106 27.3855C34.4023 27.7767 33.3266 27.4507 33.0984 26.701Z" fill="#FAFCFF" stroke="#1C2628" strokeWidth="0.831281" strokeLinecap="round" strokeLinejoin="round"/>
<path id="Vector_10" fillRule="evenodd" clipRule="evenodd" d="M22.0806 43.2929L21.2983 35.4696C21.2983 35.4696 27.5896 34.0679 29.1216 35.7304C30.6211 37.3602 29.0238 42.7388 29.0238 42.7388L25.2425 43.2929" fill="#FB564C"/>
<path id="Vector_11" fillRule="evenodd" clipRule="evenodd" d="M15.6263 29.3737C17.1258 32.0467 19.6358 26.0488 19.6358 26.0488L29.8062 23.6366L30.5233 18.4536L32.9029 24.2559L36.5212 24.1907C36.5212 24.1907 33.6527 16.9867 32.9029 16.3022C29.9366 13.4662 24.884 13.6292 21.6243 16.3348C18.9187 18.584 12.5296 23.8973 15.6263 29.3737Z" fill="#1C2628" stroke="#1C2628" strokeWidth="0.831281" strokeLinecap="round" strokeLinejoin="round"/>
<g id="Vector_12">
<path fillRule="evenodd" clipRule="evenodd" d="M20.4181 30.7431C19.701 29.8629 18.2667 30.7431 18.0059 31.5906C17.4517 33.3183 18.7556 36.2194 21.4612 34.4918" fill="#F45B49"/>
<path d="M20.4181 30.7431C19.701 29.8629 18.2667 30.7431 18.0059 31.5906C17.4517 33.3183 18.7556 36.2194 21.4612 34.4918" stroke="#1C2628" strokeWidth="0.831281" strokeLinecap="round" strokeLinejoin="round"/>
</g>
<path id="Vector_13" fillRule="evenodd" clipRule="evenodd" d="M27.8829 30.0585C27.3613 30.3845 26.7094 30.3193 26.4486 29.8955C26.1878 29.4718 26.3834 28.8524 26.9049 28.5265C27.4265 28.2005 28.0785 28.2657 28.3392 28.6895C28.6 29.1132 28.4044 29.7326 27.8829 30.0585Z" fill="#1C2628" stroke="#1C2628" strokeWidth="0.831281" strokeLinecap="round" strokeLinejoin="round"/>
<path id="Vector_14" fillRule="evenodd" clipRule="evenodd" d="M33.0332 26.9619C32.6747 26.4403 32.7724 25.5928 34.1415 25.3646C34.6305 25.2668 34.5979 25.5276 34.9239 26.0165C35.2824 26.5381 34.7935 27.0922 34.4023 27.3856C33.9785 27.679 33.3918 27.4834 33.0332 26.9619Z" fill="#1C2628" stroke="#1C2628" strokeWidth="0.831281" strokeLinecap="round" strokeLinejoin="round"/>
<path id="Vector_15" d="M19.7009 32.4055C19.7661 32.4707 19.7987 32.5359 19.8639 32.6011" stroke="#1C2628" strokeWidth="0.831281" strokeLinecap="round" strokeLinejoin="round"/>
<path id="Vector_16" fillRule="evenodd" clipRule="evenodd" d="M37.7926 44.8249L40.0092 50.9532L44.4098 63.1446L41.7368 70.3812L40.9871 82.214L9.36769 94.2424L5.78198 59.5589L16.1479 52.2245L16.7999 42.5105L20.4508 42.9017L21.3961 45.3139C22.537 48.2802 25.373 50.2361 28.5675 50.2361H29.4802C32.3162 50.2361 34.5002 47.7587 34.1417 44.9553L33.9787 43.6514L37.7926 44.8249Z" fill="#FAF6EB" stroke="#1C2628" strokeWidth="0.831281" strokeLinecap="round" strokeLinejoin="round"/>
<path id="Vector_17" fillRule="evenodd" clipRule="evenodd" d="M28.274 34.2636C29.4801 35.3719 31.1426 34.1332 32.6421 34.0354C32.6421 34.0354 32.5443 36.7084 29.8387 36.4476C28.0458 36.252 28.274 34.2636 28.274 34.2636Z" fill="#1C2628" stroke="#1C2628" strokeWidth="0.831281" strokeLinecap="round" strokeLinejoin="round"/>
<g id="Vector_18">
<path fillRule="evenodd" clipRule="evenodd" d="M32.3813 27.7766C34.2393 28.1352 36.2278 27.5158 36.456 28.5915C36.7167 29.9932 33.7178 31.0038 33.3266 30.9386" fill="#F45B49"/>
<path d="M32.3813 27.7766C34.2393 28.1352 36.2278 27.5158 36.456 28.5915C36.7167 29.9932 33.7178 31.0038 33.3266 30.9386" stroke="#1C2628" strokeWidth="0.831281" strokeLinecap="round" strokeLinejoin="round"/>
</g>
<path id="Vector_19" d="M26.8072 18.4863C25.8945 20.1162 26.0249 22.1372 25.6989 23.9953" stroke="#FAF6EB" strokeWidth="0.831281" strokeLinecap="round" strokeLinejoin="round"/>
<path id="Vector_20" d="M21.2004 19.8555C13.3445 19.2362 15.5611 34.2635 14.7788 38.5012" stroke="#FAF6EB" strokeWidth="0.831281" strokeLinecap="round" strokeLinejoin="round"/>
<path id="Vector_21" fillRule="evenodd" clipRule="evenodd" d="M19.6358 42.5432L9.88919 37.1973L8.42231 43.5212L3.01114 43.6515L5.39074 50.9207L-1.68286 53.4307L1.51167 59.885L-3.08456 64.6768L4.11946 67.578L3.85868 92.7105L20.1899 92.9061L19.6358 42.5432Z" fill="#1C2628" stroke="#1C2628" strokeWidth="0.831281" strokeLinecap="round" strokeLinejoin="round"/>
<path id="Vector_22" fillRule="evenodd" clipRule="evenodd" d="M36.1626 44.3035C36.1626 44.3035 32.5117 88.375 32.6747 91.048C32.8377 93.721 48.354 88.4728 48.354 88.4728L49.9187 66.3067L55.7862 64.1552L51.8745 59.2656L58.8178 55.9733L53.8956 53.3329L58.9482 45.7377L47.0827 44.7598L36.1626 44.3035Z" fill="#1C2628" stroke="#1C2628" strokeWidth="0.831281" strokeLinecap="round" strokeLinejoin="round"/>
<path id="Vector_23" fillRule="evenodd" clipRule="evenodd" d="M36.7494 19.7577C36.7494 19.7577 38.1185 11.8365 29.1542 12.6841C20.1899 13.5316 13.5075 16.7913 13.3445 19.2687C13.1815 21.7461 13.8334 23.702 13.8334 23.702L36.7494 19.7577Z" fill="#F45B49" stroke="#1C2628" strokeWidth="0.831281" strokeLinecap="round" strokeLinejoin="round"/>
<path id="Vector_24" fillRule="evenodd" clipRule="evenodd" d="M37.1405 20.7356C37.1405 20.7356 42.3886 16.2372 40.4002 14.6073C37.1079 11.8366 19.2119 19.2687 19.2119 19.2687L13.4422 23.5716L37.1405 20.7356Z" fill="#FAF6EB" stroke="#1C2628" strokeWidth="0.831281" strokeLinecap="round" strokeLinejoin="round"/>
<path id="Vector_25" d="M41.8996 44.6946L39.4548 44.4338L38.1183 68.3603" stroke="#FAF6EB" strokeWidth="0.831281" strokeLinecap="round" strokeLinejoin="round"/>
<path id="Vector_26" d="M17.5169 44.7273V64.5465" stroke="#FAF6EB" strokeWidth="0.831281" strokeLinecap="round" strokeLinejoin="round"/>
<path id="Vector_27" d="M42.2583 52.9744C41.476 56.5927 41.0848 60.2762 41.0848 63.9597C41.0848 65.7525 41.1174 67.7409 39.9113 69.0448" stroke="white" strokeWidth="0.831281" strokeLinecap="round" strokeLinejoin="round"/>
<path id="Vector_28" d="M8.38968 43.0974C10.0847 44.5317 11.682 46.0964 13.2141 47.6936" stroke="white" strokeWidth="0.831281" strokeLinecap="round" strokeLinejoin="round"/>
<path id="Vector_29" d="M36.4233 36.7407C36.6841 38.8921 37.4013 40.9458 38.5422 42.8038" stroke="white" strokeWidth="0.831281" strokeLinecap="round" strokeLinejoin="round"/>
<path id="Vector_30" d="M34.3046 36.4475C34.4024 37.7188 34.5002 39.0227 34.598 40.294" stroke="white" strokeWidth="0.831281" strokeLinecap="round" strokeLinejoin="round"/>
<path id="Vector_31" d="M17.582 30.2542C17.4517 34.1332 17.8428 37.0018 17.7124 40.8809C17.7124 41.3046 17.6798 41.7284 17.4843 42.087" stroke="white" strokeWidth="0.831281" strokeLinecap="round" strokeLinejoin="round"/>
</g>
</g>
<defs>
<clipPath id="clip0">
<rect width="60.8826" height="60.8826" fill="white" transform="translate(0.904358 0.912354)"/>
</clipPath>
</defs>
</svg>
