<svg width="62" height="62" viewBox="0 0 62 62" fill="none" xmlns="http://www.w3.org/2000/svg">
<g id="Maulie" clipPath="url(#clip0)">
<rect width="60.2195" height="60.2195" transform="translate(0.866516 0.971924)" fill="white"/>
<path id="Vector" d="M169.985 165.081C143.777 176.962 95.9004 157.77 60.9339 152.216C25.9673 146.838 4.2979 155.274 -3.05422 145.749C-10.4063 136.223 -3.40599 108.806 -15.6126 85.9943C-27.8193 63.1822 -59.5143 45.1153 -71.2636 15.1326C-83.224 -14.6391 -75.2387 -56.3618 -50.2274 -75.9402C-25.2161 -95.3428 17.0674 -92.8471 39.7921 -69.9999C62.7279 -47.3986 66.3512 -4.44575 90.5886 21.7056C115.072 47.646 160.205 56.9959 180.467 83.2527C200.73 109.509 196.192 152.99 169.985 165.081Z" fill="#F55C4A"/>
<g id="Group 33">
<path id="Vector_2" d="M-8.77952 2.90186C-1.36673 7.80492 2.7788 17.6816 -1.71805 31.7911C-5.68793 44.1723 -23.4997 55.8832 -6.74187 67.4177C21.0824 86.642 64.3295 50.3099 75.6419 35.5654C91.7673 14.5775 114.498 22.2672 110.387 29.4983C104.626 39.5867 101.499 45.2657 116.57 49.6044C137.017 55.4599 170.392 32.3908 177.032 66.2889C177.805 70.2043 177.699 74.2256 178.051 78.1762" stroke="#1C2628" strokeWidth="0.822228" strokeLinecap="round" strokeLinejoin="round"/>
<path id="Vector_3" fillRule="evenodd" clipRule="evenodd" d="M26.0283 29.0977C19.2885 33.1146 12.4083 36.9554 5.77387 41.1837C-9.84699 51.1202 -0.93082 69.302 -4.86236 75.0102C-14.7614 89.4569 -34.0681 93.6148 -41.6152 109.964C-46.8807 121.381 -37.5082 132.762 -28.7675 138.858C-27.0826 140.056 -25.187 141.677 -23.151 141.465C-19.1844 141.042 -15.99 137.625 -12.0585 137.061C-5.07298 136.039 2.15826 137.977 9.14377 136.814C23.9222 134.277 38.0687 128.816 52.7769 125.997C64.7119 123.706 76.9979 123.601 88.9681 121.522C92.338 120.923 96.3397 115.391 97.463 113.171C99.3586 109.401 100.903 105.384 101.886 101.261C104.694 89.8093 107.573 73.4598 101.535 62.431C95.8132 52.0364 80.9295 59.8235 75.4885 50.7679C69.5561 40.9018 59.7624 27.8997 45.9669 28.393C42.281 28.534 38.6303 29.4149 34.9796 29.9434" fill="#FAF6EB"/>
<path id="Vector_4" fillRule="evenodd" clipRule="evenodd" d="M22.4837 32.6646C22.4837 31.8011 21.8871 31.0815 21.1151 31.0815C20.3781 31.0815 18.6936 31.5133 18.6235 32.3768C18.3778 35.1832 17.8514 39.7886 17.8514 39.7886C17.8514 39.7886 19.2902 41.9114 20.2728 39.7886C20.8694 38.5293 20.9045 34.2837 21.08 34.2837C21.852 34.2837 22.4837 33.5641 22.4837 32.6646Z" fill="#FAF6EB" stroke="#1C2628" strokeWidth="0.822228" strokeLinecap="round" strokeLinejoin="round"/>
<path id="Vector_5" fillRule="evenodd" clipRule="evenodd" d="M96.9861 82.0991L85.4447 98.0087L53.8819 117.86L31.3622 119.867L41.3202 109.554L60.0397 106.21L60.7786 95.6152L46.176 79.9872L54.4097 65.4504L58.9489 57.39C58.9489 57.39 61.6231 55.2429 71.6162 60.3818C76.472 62.8809 82.5946 68.0551 87.5911 72.7364C92.9044 77.6994 96.9861 82.0991 96.9861 82.0991Z" fill="#47584E" stroke="#1C2628" strokeWidth="0.822228" strokeLinecap="round" strokeLinejoin="round"/>
<path id="Vector_6" fillRule="evenodd" clipRule="evenodd" d="M20.6467 25.688C17.3003 24.2252 18.181 18.2346 22.725 14.9259C27.2339 11.6172 34.6312 13.4631 36.4981 13.3586C46.9952 12.8362 50.5178 23.6331 47.0657 34.2906C46.0794 37.3904 37.6253 45.1223 34.2085 43.1023C30.7212 41.0474 37.5196 31.1561 34.5607 28.8922" fill="#FAF6EB"/>
<path id="Vector_7" fillRule="evenodd" clipRule="evenodd" d="M37.8831 38.03L39.1742 48.6899L42.9429 53.4625C42.9429 53.4625 39.3487 58.3744 33.1026 57.6429C26.8215 56.9462 24.9023 53.0097 24.9023 53.0097L24.4138 39.1448L37.8831 38.03Z" fill="#F45B49" stroke="#1C2628" strokeWidth="0.822228" strokeLinecap="round" strokeLinejoin="round"/>
<path id="Vector_8" fillRule="evenodd" clipRule="evenodd" d="M42.8074 34.4116C42.3821 37.6403 41.6732 40.4078 39.5112 42.4302C36.9947 44.8075 32.777 46.1203 29.2326 45.659C23.8098 44.9494 20.0882 41.7916 19.4857 36.7533C19.3439 35.6889 19.3794 34.5535 19.5211 33.3117C19.9819 29.7636 19.5566 22.6319 20.6199 21.5675C22.0731 20.3611 29.1263 18.729 29.1263 18.729C29.1263 18.729 35.258 21.0353 36.5694 21.2127C39.7593 21.8868 43.7289 27.3509 42.8074 34.4116Z" fill="#47584E" stroke="#1C2628" strokeWidth="0.822228" strokeLinecap="round" strokeLinejoin="round"/>
<g id="Vector_9">
<path fillRule="evenodd" clipRule="evenodd" d="M27.1159 29.1514C25.9439 30.5578 22.7829 33.1597 23.3156 34.0739C23.9904 35.2694 26.6897 33.8981 26.9383 33.6168" fill="#47584E"/>
<path d="M27.1159 29.1514C25.9439 30.5578 22.7829 33.1597 23.3156 34.0739C23.9904 35.2694 26.6897 33.8981 26.9383 33.6168" stroke="#1C2628" strokeWidth="0.822228" strokeLinecap="round" strokeLinejoin="round"/>
</g>
<path id="Vector_10" fillRule="evenodd" clipRule="evenodd" d="M39.4277 50.7565L39.8546 40.4728C39.8546 40.4728 31.6359 38.1324 29.6435 41.0047C27.6511 43.8771 31.2801 51.8558 31.2801 51.8558L37.293 51.9267" fill="#49574E"/>
<g id="Vector_11">
<path fillRule="evenodd" clipRule="evenodd" d="M41.4546 29.2798C41.0662 29.3504 42.761 27.6906 44.7384 29.9861C46.1154 31.6106 44.6678 36.2015 41.4899 34.6124" fill="#47584E"/>
<path d="M41.4546 29.2798C41.0662 29.3504 42.761 27.6906 44.7384 29.9861C46.1154 31.6106 44.6678 36.2015 41.4899 34.6124" stroke="#1C2628" strokeWidth="0.822228" strokeLinecap="round" strokeLinejoin="round"/>
</g>
<path id="Vector_12" d="M43.3289 31.0815L43.2476 31.3623L43.0038 31.8185L42.5568 32.2396" stroke="#1C2628" strokeWidth="0.822228" strokeLinecap="round" strokeLinejoin="round"/>
<path id="Vector_13" fillRule="evenodd" clipRule="evenodd" d="M32.5202 45.4115L24.1317 44.2063L24.0277 51.5407C24.0277 51.5407 27.0087 50.7832 29.4698 49.3714C31.9656 47.9596 32.5202 45.4115 32.5202 45.4115Z" fill="#1C2628" stroke="#1C2628" strokeWidth="0.822228" strokeLinecap="round" strokeLinejoin="round"/>
<path id="Vector_14" fillRule="evenodd" clipRule="evenodd" d="M64.9461 116.241C64.9461 116.241 49.4407 123.202 37.0294 124.608C24.618 126.015 12.5583 120.882 12.5583 120.882L13.9647 97.8534L8.86651 93.74L-0.521108 118.175C-0.521108 118.175 -16.8 151.75 -32.7977 140.851C-48.7953 129.988 -49.0766 94.9002 -50.3423 89.8023C-51.1861 86.4271 -51.1158 73.8055 -52.3112 63.5043C-52.9441 58.3009 -52.7683 55.8399 -52.7683 55.8399C-52.7683 55.8399 -50.5533 53.8007 -48.1976 58.5119L-47.6702 64.6293L-45.9474 69.9382C-45.9474 69.9382 -38.7396 65.4028 -35.4346 66.5982C-32.0945 67.7935 -32.0593 73.0321 -32.0593 73.1375C-32.0593 73.1375 -32.6219 74.4383 -34.7314 73.3836C-35.7862 72.8562 -37.2278 70.2194 -37.2278 70.2194L-40.3218 73.9461L-39.5835 79.3956L-36.4191 77.7432C-36.4191 77.7432 -35.7862 76.372 -34.5908 75.2821C-33.3954 74.1571 -31.6725 74.7899 -31.6725 74.7899L-32.868 80.9777L-37.5442 84.8099L-27.4182 113.815C-27.4182 113.815 -27.2073 113.463 -26.8205 112.831C-24.5703 108.998 -16.5187 94.7595 -12.5457 80.3449C-8.67815 66.4224 1.06107 62.3441 4.29575 61.3597C4.96379 61.1487 5.35054 61.0784 5.35054 61.0784L55.2772 60.0588L58.1252 93.9509L64.9461 116.241Z" fill="#47584E" stroke="#1C2628" strokeWidth="0.822228" strokeLinecap="round" strokeLinejoin="round"/>
<path id="Vector_15" fillRule="evenodd" clipRule="evenodd" d="M6.27073 68.7114C2.24356 72.6472 -4.30498 76.5127 -6.3711 80.4485C-8.9625 85.298 -7.07148 86.9145 -9.34771 96.0512C-10.5384 100.866 -11.5889 104.942 -14.7756 108.878C-17.262 111.9 -22.3397 116.398 -25.3513 114.957C-25.8066 114.746 -26.4019 114.289 -26.9272 112.919C-24.686 109.089 -16.6667 94.8564 -12.7095 80.4485C-8.85745 66.5326 0.842804 62.4563 4.06454 61.4723C4.23964 61.3669 4.44974 61.2614 4.62484 61.1912L6.27073 68.7114Z" fill="#1C2628" stroke="#1C2628" strokeWidth="0.822228" strokeLinecap="round" strokeLinejoin="round"/>
<path id="Vector_16" fillRule="evenodd" clipRule="evenodd" d="M61.9995 91.3929C61.2246 92.0611 60.2384 92.5182 59.0056 92.7644C55.448 93.5381 36.8854 95.4371 24.3812 96.7031C24.2755 96.7031 24.1346 96.7382 24.029 96.7382C17.4775 97.4064 12.6871 97.8636 12.6871 97.8636C12.6871 97.8636 11.8418 97.7229 10.7851 96.9844C9.12958 95.8591 6.94575 93.2919 6.62874 87.6301C6.38218 83.41 7.54454 73.7392 7.54454 73.7392L6.38218 68.3939L4.72668 60.8682V60.7978C4.72668 60.7978 13.6734 58.934 18.2524 56.0152C22.8666 53.0963 23.1132 49.1577 23.1132 49.1577L40.6191 47.7158L41.1474 47.6807C41.1474 47.6807 43.0495 50.2478 46.1491 52.1468C46.6422 52.4282 47.1354 52.7095 47.6637 52.9557C48.5091 53.3425 49.4249 53.659 50.4111 53.8348C51.0451 53.9755 51.7144 54.081 52.3836 54.2217C57.0331 55.136 62.3165 56.191 62.3165 56.191L57.808 67.6554C57.808 67.6554 61.6121 73.8799 62.704 77.4669C64.8174 84.4651 64.7117 89.1071 61.9995 91.3929Z" fill="#F3A140" stroke="#1C2628" strokeWidth="0.822228" strokeLinecap="round" strokeLinejoin="round"/>
<path id="Vector_17" fillRule="evenodd" clipRule="evenodd" d="M26.3439 9.27136C26.3439 6.4034 28.8433 4.06006 31.9412 4.06006C35.0391 4.06006 37.5385 6.4034 37.5385 9.27136C37.5385 12.1393 35.0391 14.4827 31.9412 14.4827C28.8433 14.4477 26.3439 12.1393 26.3439 9.27136Z" fill="#FAF6EB"/>
<g id="Vector_18">
<path fillRule="evenodd" clipRule="evenodd" d="M20.9396 29.2616C22.1328 29.824 23.712 29.4601 24.7998 28.7654Z" fill="#47584E"/>
<path d="M20.9396 29.2616C22.1328 29.824 23.712 29.4601 24.7998 28.7654" stroke="#1C2628" strokeWidth="0.822228" strokeLinecap="round" strokeLinejoin="round"/>
</g>
<g id="Vector_19">
<path fillRule="evenodd" clipRule="evenodd" d="M31.7482 28.158C33.8043 29.299 34.78 28.6695 36.7664 27.6072Z" fill="#47584E"/>
<path d="M31.7482 28.158C33.8043 29.299 34.78 28.6695 36.7664 27.6072" stroke="#1C2628" strokeWidth="0.822228" strokeLinecap="round" strokeLinejoin="round"/>
</g>
<path id="Vector_20" fillRule="evenodd" clipRule="evenodd" d="M28.6894 11.7805H35.193C36.0672 11.7805 36.7665 12.4668 36.7665 13.3246C36.7665 14.1824 36.0672 14.8687 35.193 14.8687H28.6894C27.8152 14.8687 27.1159 14.1824 27.1159 13.3246C27.1159 12.4668 27.8152 11.7805 28.6894 11.7805Z" fill="#F45B49" stroke="#1C2628" strokeWidth="0.822228" strokeLinecap="round" strokeLinejoin="round"/>
<path id="Vector_21" fillRule="evenodd" clipRule="evenodd" d="M41.7848 31.1205C41.7848 30.257 42.3814 29.5374 43.1534 29.5374C43.8904 29.5374 45.5749 29.9691 45.6451 30.8326C45.8907 33.639 46.4171 38.2444 46.4171 38.2444C46.4171 38.2444 44.9783 40.3673 43.9957 38.2444C43.3991 36.9852 43.364 32.7396 43.1534 32.7396C42.4165 32.7036 41.7848 31.984 41.7848 31.1205Z" fill="#FAF6EB" stroke="#1C2628" strokeWidth="0.822228" strokeLinecap="round" strokeLinejoin="round"/>
<path id="Vector_22" fillRule="evenodd" clipRule="evenodd" d="M51.6898 54.4785C51.9718 54.4427 52.2186 54.407 52.5007 54.3354C51.8308 54.1923 51.1609 54.0492 50.5263 53.9419C49.5391 53.7272 48.6225 53.441 47.7763 53.0474C47.7411 53.2621 47.7763 53.4767 47.8821 53.6556C47.6353 53.8703 47.5295 54.085 47.5295 54.3354C47.2122 54.3712 47.0007 54.5143 46.8597 54.6932C46.5776 54.5501 46.3308 54.5501 46.1193 54.6216C45.943 54.3354 45.7667 54.1923 45.5199 54.1565C45.5199 53.8345 45.4494 53.6198 45.2731 53.441C45.4142 53.2263 45.4847 52.9758 45.4494 52.7612C45.6962 52.6181 45.8372 52.4392 45.9078 52.2245C46.0488 52.2245 46.1545 52.2245 46.2603 52.2245C43.1225 50.3282 41.2539 47.6807 41.2539 47.6807L40.7251 47.7164C40.1257 48.1458 40.5841 49.398 41.4655 50.5429C40.6546 50.4356 39.9142 50.4714 39.4206 50.686C37.693 51.4732 39.3501 52.8685 41.3244 53.6198C40.3373 54.0134 39.4559 54.5501 39.1386 55.0867C38.1161 56.7325 40.2668 56.9472 42.3116 56.4821C41.7123 57.3408 41.2539 58.271 41.2539 58.9508C41.2892 60.8828 43.193 59.881 44.6738 58.3426C44.6385 59.4159 44.7443 60.4177 45.1321 60.9902C46.1898 62.5644 47.2475 60.7039 47.6706 58.593C48.1994 59.5233 48.8693 60.3104 49.4686 60.5608C51.2314 61.3122 51.0904 59.1297 50.2795 57.1619C51.2314 57.627 52.2186 57.9132 52.8532 57.8059C54.6866 57.4481 53.4173 55.695 51.6898 54.4785Z" fill="#FAF6EB" stroke="#1C2628" strokeWidth="0.822228" strokeLinecap="round" strokeLinejoin="round"/>
<path id="Vector_23" d="M20.5535 53.4707C21.3821 54.3217 22.5213 54.8574 23.7296 54.9835C26.1807 55.2356 28.4937 53.8804 30.9448 53.9119C33.1887 53.9435 35.2946 55.1096 37.5385 54.9205" stroke="#1C2628" strokeWidth="0.822228" strokeLinecap="round" strokeLinejoin="round"/>
<path id="Vector_24" d="M22.1223 50.7686C21.9801 51.2616 22.4779 51.6787 22.9401 51.8683C26.318 53.2715 30.1226 50.8444 33.6782 51.4891" stroke="#1C2628" strokeWidth="0.822228" strokeLinecap="round" strokeLinejoin="round"/>
<path id="Vector_25" d="M34.6433 36.8717C35.8159 36.8717 36.7664 36.0076 36.7664 34.9416C36.7664 33.8756 35.8159 33.0115 34.6433 33.0115C33.4707 33.0115 32.5202 33.8756 32.5202 34.9416C32.5202 36.0076 33.4707 36.8717 34.6433 36.8717Z" fill="#FAF6EB"/>
<path id="Vector_26" d="M20.1675 33.0115C21.4503 33.0115 22.4836 33.8607 22.4836 34.9416C22.4836 36.0224 21.4503 36.8717 20.1675 36.8717" fill="#FAF6EB"/>
<path id="Vector_27" d="M31.5171 17.571C31.5171 17.571 29.7644 20.0292 32.5687 21.4338C35.373 22.8385 37.2308 22.1362 38.1773 23.892C40.631 28.4571 44.4869 26.3501 44.4869 26.3501" stroke="#FAF6EB" strokeWidth="0.822228" strokeLinecap="round" strokeLinejoin="round"/>
</g>
</g>
<defs>
<clipPath id="clip0">
<rect width="60.2195" height="60.2195" fill="white" transform="translate(0.866516 0.971924)"/>
</clipPath>
</defs>
</svg>
