<svg width="62" height="62" viewBox="0 0 62 62" fill="none" xmlns="http://www.w3.org/2000/svg">
<g id="Maurice" clipPath="url(#clip0)">
<rect width="60.744" height="60.744" transform="translate(0.923218 0.866211)" fill="white"/>
<g id="Wall">
<path id="Vector" fillRule="evenodd" clipRule="evenodd" d="M-27.5017 -13.9304H76.464V118.46H-27.5017V-13.9304Z" fill="#F3A140" stroke="#1C2628" strokeWidth="0.82939" strokeLinecap="round" strokeLinejoin="round"/>
<path id="Vector_2" d="M-27.502 46.4241H76.0744" stroke="#1C2628" strokeWidth="0.82939" strokeLinecap="round" strokeLinejoin="round"/>
<path id="Vector_3" d="M24.6754 -13.541L26.233 118.46" stroke="#1C2628" strokeWidth="0.82939" strokeLinecap="round" strokeLinejoin="round"/>
<path id="Vector_4" d="M-27.502 11.3796H76.0744" stroke="#1C2628" strokeWidth="0.82939" strokeLinecap="round" strokeLinejoin="round"/>
</g>
<g id="Hair">
<path fillRule="evenodd" clipRule="evenodd" d="M25.8523 39.9874C17.9655 32.0925 19.0808 20.5292 20.4152 19.4128C34.4958 7.69004 42.522 21.5061 46.2264 21.2868C55.3081 22.4033 61.9003 26.4305 62.6571 32.7903C63.3143 38.3725 62.6571 52.2683 51.8427 50.793C45.1708 48.5003 26.5892 52.7668 20.8733 48.0816C17.7863 45.5497 19.758 27.1681 17.6668 23.7988" fill="#1C2628"/>
<path d="M25.8523 39.9874C17.9655 32.0925 19.0808 20.5292 20.4152 19.4128C34.4958 7.69004 42.522 21.5061 46.2264 21.2868C55.3081 22.4033 61.9003 26.4305 62.6571 32.7903C63.3143 38.3725 62.6571 52.2683 51.8427 50.793C45.1708 48.5003 26.5892 52.7668 20.8733 48.0816C17.7863 45.5497 19.758 27.1681 17.6668 23.7988" stroke="#1C2628" strokeWidth="0.82939" strokeLinecap="round" strokeLinejoin="round"/>
</g>
<path id="Back" fillRule="evenodd" clipRule="evenodd" d="M76.4639 104.451C76.4639 104.451 76.3042 104.55 75.9849 104.709C73.9893 105.659 66.0268 108.608 57.5255 100.314C56.4678 99.2851 55.4102 98.0776 54.3525 96.692C43.4365 82.2422 36.1325 79.8075 36.1325 79.8075L21.824 53.679L21.1655 52.4913L11.826 41.6639L23.4205 33.9639L51.2793 39.6448C51.2793 39.6448 57.7251 34.142 64.8095 43.0099C66.426 45.0487 68.0823 47.8199 69.7187 51.6006C73.1113 59.4985 73.4106 77.1748 73.7099 90.0411C73.9295 98.335 76.4639 104.451 76.4639 104.451Z" fill="#FAF6EB" stroke="#1C2628" strokeWidth="0.82939" strokeLinecap="round" strokeLinejoin="round"/>
<path id="Vector_5" fillRule="evenodd" clipRule="evenodd" d="M40.2646 32.0168L44.2668 39.4085L51.1538 42.8383C51.1538 42.8383 48.4721 48.9685 42.8853 50.9396C37.2985 52.9107 34.5355 51.2747 32.2805 50.5059C30.0051 49.7372 27.7907 46.3075 27.7907 46.3075L30.3302 42.3258L27.8517 39.172L40.2646 32.0168Z" fill="#F45B49" stroke="#1C2628" strokeWidth="0.82939" strokeLinecap="round" strokeLinejoin="round"/>
<path id="Faceback" fillRule="evenodd" clipRule="evenodd" d="M38.5581 26.5834C37.8094 24.3827 39.1045 23.7086 37.4654 22.3207C34.5516 19.8226 30.5653 18.8511 26.8623 20.1001C22.6939 21.488 18.0803 22.5586 17.6756 26.8808C17.5138 28.5462 19.6182 33.0072 20.205 34.7321C22.3094 40.8783 28.7037 44.3083 34.4909 42.3852C38.1939 41.1559 40.5614 39.1931 41.3708 35.4657C41.7957 33.4037 39.3068 28.804 38.5581 26.5834Z" fill="#F45B49" stroke="#1C2628" strokeWidth="0.82939" strokeLinecap="round" strokeLinejoin="round"/>
<path id="Neck" fillRule="evenodd" clipRule="evenodd" d="M44.5343 41.1437L40.2109 32.7959C40.2109 32.7959 33.2498 35.6603 32.873 38.3202C32.4961 40.98 37.5137 45.2562 37.5137 45.2562L41.5198 43.2716" fill="#FB564C"/>
<path id="Hair_2" fillRule="evenodd" clipRule="evenodd" d="M37.3356 23.9176C30.3489 29.9647 21.4236 25.8426 21.4236 25.8426C21.4236 25.8426 22.6554 32.5507 19.6668 35.4089C16.6783 38.2477 13.1042 33.9701 14.4571 27.3203C15.8302 20.6899 24.6949 15.2068 29.6825 15.6929C33.8625 16.1206 42.8685 19.115 37.3356 23.9176Z" fill="#1C2628" stroke="#1C2628" strokeWidth="0.82939" strokeLinecap="round" strokeLinejoin="round"/>
<path id="HairHigh" d="M53.1008 32.4065C56.8385 35.0227 58.0508 34.8807 61.6673 36.3003" stroke="#FAF6EB" strokeWidth="0.82939" strokeLinecap="round" strokeLinejoin="round"/>
<path id="Vector_6" fillRule="evenodd" clipRule="evenodd" d="M28.1877 42.5517L32.2452 42.7533L35.9678 41.3623C35.9678 41.3623 34.5496 45.3941 32.5603 47.0874C30.5906 48.7808 25.8438 48.7606 25.8438 48.7606L28.1877 42.5517Z" fill="#1C2628" stroke="#1C2628" strokeWidth="0.82939" strokeLinecap="round" strokeLinejoin="round"/>
<g id="Ear">
<g id="Ear_2">
<path fillRule="evenodd" clipRule="evenodd" d="M35.6227 25.2959C35.2659 23.9921 37.1547 23.1976 38.1621 23.5236C40.2819 24.1755 42.2547 27.4554 38.6239 28.9018" fill="#F45B49"/>
<path d="M35.6227 25.2959C35.2659 23.9921 37.1547 23.1976 38.1621 23.5236C40.2819 24.1755 42.2547 27.4554 38.6239 28.9018" stroke="#1C2628" strokeWidth="0.82939" strokeLinecap="round" strokeLinejoin="round"/>
</g>
<path id="Vector_7" d="M37.9147 25.3975C38.0445 25.5365 38.1743 25.6478 38.3041 25.7868" stroke="#1C2628" strokeWidth="0.82939" strokeLinecap="round" strokeLinejoin="round"/>
</g>
<g id="Legs">
<path id="Vector_8" fillRule="evenodd" clipRule="evenodd" d="M41.2518 85.0832C41.2518 85.0832 15.5336 40.641 -0.354116 53.9856C-9.01292 61.2536 -16.5993 101.426 -16.5993 101.426L-1.00948 104.842L9.39697 87.8831C9.39697 87.8831 14.0243 108.853 22.6036 112.864C27.4295 115.128 46.9516 116.399 56.4048 114.215C63.7528 112.527 63.6138 105.398 63.6138 105.398L41.2518 85.0832Z" fill="#1C2628" stroke="#1C2628" strokeWidth="0.82939" strokeLinecap="round" strokeLinejoin="round"/>
<path id="Vector_9" fillRule="evenodd" clipRule="evenodd" d="M64.5883 115.218C55.1436 117.408 35.143 117.507 30.3215 115.258C21.7498 111.237 15.5393 90.4572 15.5393 90.4572L7.20573 105.823L-10.771 100.071L-11.1479 99.9516C-11.1479 99.9516 -0.353999 58.2122 7.9002 50.4694C24.0316 39.3627 49.449 86.0385 49.449 86.0385L62.5049 97.9413L71.7909 106.401C71.7909 106.401 71.9298 113.526 64.5883 115.218Z" fill="#1C2628" stroke="#1C2628" strokeWidth="0.82939" strokeLinecap="round" strokeLinejoin="round"/>
</g>
<path id="Trouser" fillRule="evenodd" clipRule="evenodd" d="M49.6886 86.0799C49.6886 86.0799 24.1333 39.3655 7.91432 50.4662C-0.384676 58.1987 -10.7584 98.1969 -10.7584 98.1969C-10.5589 98.1969 -10.1599 98.0972 -9.6612 97.9378C-4.49428 96.2039 -0.723814 91.3013 -1.00311 85.8407C-1.58164 75.0988 8.93175 46.002 21.0411 60.1518C25.031 64.8153 31.2951 65.2537 33.33 68.7812C34.926 71.6112 33.1305 75.2383 34.527 78.2676C35.9234 81.6954 40.1527 81.6954 43.1651 83.3097C47.9729 85.7411 49.9878 100.13 62.8353 97.9976L49.6886 86.0799Z" fill="#FAF6EB"/>
<g id="Face">
<g id="Vector_10">
<path fillRule="evenodd" clipRule="evenodd" d="M25.065 33.5745C25.5066 35.6975 24.7707 37.9958 26.0953 38.2295C27.8404 38.5217 29.0388 35.0742 28.9547 34.6262" fill="#F45B49"/>
<path d="M25.065 33.5745C25.5066 35.6975 24.7707 37.9958 26.0953 38.2295C27.8404 38.5217 29.0388 35.0742 28.9547 34.6262" stroke="#1C2628" strokeWidth="0.82939" strokeLinecap="round" strokeLinejoin="round"/>
</g>
<path id="Vector_11" d="M33.5826 33.9636C33.8685 35.9105 32.8773 37.0582 31.2953 37.4681" stroke="#1C2628" strokeWidth="0.82939" strokeLinecap="round" strokeLinejoin="round"/>
<path id="Vector_12" d="M27.7907 31.6275C29.7869 30.7931 30.9847 30.5011 31.2952 28.123" stroke="#1C2628" strokeWidth="0.82939" strokeLinecap="round" strokeLinejoin="round"/>
<path id="Vector_13" d="M21.1712 36.3002C22.1065 35.8135 22.7363 35.5037 23.1181 34.3533" stroke="#1C2628" strokeWidth="0.82939" strokeLinecap="round" strokeLinejoin="round"/>
</g>
<path id="Highlight" d="M16.7488 25.3975C14.8235 27.28 13.2427 32.9078 14.783 35.4178C15.3707 36.3591 16.8704 36.4375 17.2757 37.2415C18.9983 40.5947 14.783 41.9869 20.7818 44.4773" stroke="#1C2628" strokeWidth="0.82939" strokeLinecap="round" strokeLinejoin="round"/>
<path id="Highlight_2" d="M34.021 16.5232C36.3461 16.3834 39.2379 16.3235 41.5044 17.202C44.1226 18.2003 46.311 20.0173 48.9097 20.9357C54.5369 22.9124 61.2779 21.7144 61.2779 32.017" stroke="#1C2628" strokeWidth="0.82939" strokeLinecap="round" strokeLinejoin="round"/>
<g id="ShoulderRight">
<path fillRule="evenodd" clipRule="evenodd" d="M59.5182 39.7741C59.5182 39.7741 46.6768 33.2368 48.6305 47.2144C50.401 58.2081 49.4852 61.0154 49.4852 61.0154C49.4852 61.0154 50.0347 60.289 55.1835 63.2926C60.3322 66.2962 64.1785 71.7342 64.1785 71.7342C64.1785 71.7342 69.0831 58.6203 66.9869 53.3591" fill="#FAF6EB"/>
<path d="M59.5182 39.7741C59.5182 39.7741 46.6768 33.2368 48.6305 47.2144C50.401 58.2081 49.4852 61.0154 49.4852 61.0154C49.4852 61.0154 50.0347 60.289 55.1835 63.2926C60.3322 66.2962 64.1785 71.7342 64.1785 71.7342C64.1785 71.7342 69.0831 58.6203 66.9869 53.3591" stroke="#1C2628" strokeWidth="0.82939" strokeLinecap="round" strokeLinejoin="round"/>
</g>
<g id="Hands">
<path id="Vector_14" fillRule="evenodd" clipRule="evenodd" d="M50.255 59.8729C49.9779 57.9044 49.3644 51.9791 48.5331 44.4829C48.0779 40.2278 48.731 34.4615 48.731 34.4615C48.731 34.4615 47.9195 33.527 47.3653 34.2428C46.8111 34.9586 46.5934 37.3049 46.534 37.3049C45.584 37.106 40.0619 25.474 38.6171 26.2097C37.5681 26.7267 41.8828 33.4077 41.8828 33.4077C41.8828 33.4077 37.1722 25.8121 36.3409 26.4881C35.3909 27.2636 40.2203 34.2627 40.2203 34.2627C40.2203 34.2627 35.767 26.9256 34.5992 27.4823C33.4513 28.039 38.5973 35.4159 38.4587 35.4756C38.0431 35.6545 33.8075 28.9139 32.9565 29.3315C32.145 29.7292 36.3212 36.1317 37.5681 39.5517C39.3296 44.3238 36.7764 75.3623 44.0006 81.228C47.9987 84.4691 53.9166 84.2305 57.697 79.697C61.4575 75.1635 65.9504 63.1338 65.9504 63.1338L55.4209 51.7404C55.4209 51.7206 50.4529 61.2648 50.255 59.8729Z" fill="#F45B49" stroke="#1C2628" strokeWidth="0.82939" strokeLinecap="round" strokeLinejoin="round"/>
<path id="Vector_15" fillRule="evenodd" clipRule="evenodd" d="M12.1246 41.7515C12.1246 41.7515 3.54462 49.6321 10.9329 53.5528C18.3213 57.4735 37.7454 52.6706 37.7454 52.6706L42.2141 52.4746C42.2141 52.4746 42.4723 53.6312 43.5448 57.5519C44.5975 61.453 45.1138 66.1382 46.4445 68.1181C47.7951 70.0981 48.0334 68.1574 48.0334 68.1574L47.2589 60.8845C47.2589 60.8845 48.7286 69.314 49.4634 68.9219C50.2181 68.5298 49.6223 60.5708 49.6223 60.5708C49.6223 60.5708 52.0454 68.5494 52.522 68.4514C52.9987 68.3534 52.3632 60.0415 52.3632 60.0415C52.3632 60.0415 54.1705 70.549 54.4883 68.2554C54.8061 65.9618 54.7266 59.9827 53.8329 53.1607C53.3959 49.8477 50.1188 43.9471 43.5647 43.0061C39.6918 42.4572 12.1246 41.7515 12.1246 41.7515Z" fill="#F45B49" stroke="#1C2628" strokeWidth="0.82939" strokeLinecap="round" strokeLinejoin="round"/>
</g>
<g id="Vector_16">
<path fillRule="evenodd" clipRule="evenodd" d="M18.3176 35.7467C16.656 46.6348 23.4552 44.2577 23.4552 44.2577L27.7907 42.8144C27.7907 42.8144 22.8823 40.1614 22.5385 39.6308C22.1565 39.0365 19.6164 34.643 19.3299 33.9639" fill="#1C2628"/>
<path d="M18.3176 35.7467C16.656 46.6348 23.4552 44.2577 23.4552 44.2577L27.7907 42.8144C27.7907 42.8144 22.8823 40.1614 22.5385 39.6308C22.1565 39.0365 19.6164 34.643 19.3299 33.9639" stroke="#1C2628" strokeWidth="0.82939" strokeLinecap="round" strokeLinejoin="round"/>
</g>
<g id="Chest">
<path d="M31.3819 55.7695C30.7466 57.1016 33.6345 65.8935 39.083 65.8935Z" fill="#FAF6EB"/>
<path d="M31.3819 55.7695C30.7466 57.1016 33.6345 65.8935 39.083 65.8935" stroke="#1C2628" strokeWidth="0.82939" strokeLinecap="round" strokeLinejoin="round"/>
</g>
<g id="Headphones">
<path id="Vector_17" fillRule="evenodd" clipRule="evenodd" d="M34.0208 24.2293C34.0208 22.0824 35.7628 20.3354 37.9146 20.3354C40.0665 20.3354 41.8085 22.0824 41.8085 24.2293C41.8085 26.3762 40.0665 28.1231 37.9146 28.1231C35.7628 28.1021 34.0208 26.3762 34.0208 24.2293Z" fill="#FAF6EB" stroke="#1C2628" strokeWidth="0.82939" strokeLinecap="round" strokeLinejoin="round"/>
<path id="Vector_18" fillRule="evenodd" clipRule="evenodd" d="M14.4731 28.5125C14.4731 28.5125 12.1778 20.9794 20.0615 16.6577C29.3622 11.5431 37.5253 22.2481 37.5253 22.2481L36.1282 24.4486C36.1282 24.4486 25.7297 16.5387 17.1874 22.4662C13.1159 25.2812 14.4731 28.5125 14.4731 28.5125Z" fill="#FAF6EB" stroke="#1C2628" strokeWidth="0.82939" strokeLinecap="round" strokeLinejoin="round"/>
<path id="Vector_19" fillRule="evenodd" clipRule="evenodd" d="M35.5784 23.6453C35.5784 22.4735 36.4565 21.5037 37.5254 21.5037C38.5943 21.5037 39.4723 22.4532 39.4723 23.6453C39.4723 24.8171 38.5943 25.7869 37.5254 25.7869C36.4565 25.7869 35.5784 24.8373 35.5784 23.6453Z" fill="#FAF6EB" stroke="#1C2628" strokeWidth="0.82939" strokeLinecap="round" strokeLinejoin="round"/>
</g>
<g id="Line">
<path d="M26.2332 54.9907C26.2332 54.9907 35.1721 63.9706 39.4723 70.1767Z" fill="#FAF6EB"/>
<path d="M26.2332 54.9907C26.2332 54.9907 35.1721 63.9706 39.4723 70.1767" stroke="#1C2628" strokeWidth="0.82939" strokeLinecap="round" strokeLinejoin="round"/>
</g>
<g id="abstract">
<path id="Vector_20" d="M14.941 1.25562L17.2773 7.48577" stroke="#1C2628" strokeWidth="0.82939" strokeLinecap="round" strokeLinejoin="round"/>
<path id="Vector_21" d="M32.8527 -2.24878L30.9058 8.26461" stroke="#1C2628" strokeWidth="0.82939" strokeLinecap="round" strokeLinejoin="round"/>
<path id="Vector_22" d="M37.9148 3.9812L35.9678 8.65382" stroke="#1C2628" strokeWidth="0.82939" strokeLinecap="round" strokeLinejoin="round"/>
<path id="Vector_23" d="M53.1008 -6.14282L44.9237 9.04319" stroke="#1C2628" strokeWidth="0.82939" strokeLinecap="round" strokeLinejoin="round"/>
<path id="Vector_24" d="M59.3309 6.70703L51.1538 15.6629" stroke="#1C2628" strokeWidth="0.82939" strokeLinecap="round" strokeLinejoin="round"/>
<path id="Vector_25" d="M57.7733 18.3885L64.7823 15.2734" stroke="#1C2628" strokeWidth="0.82939" strokeLinecap="round" strokeLinejoin="round"/>
</g>
</g>
<defs>
<clipPath id="clip0">
<rect width="60.744" height="60.744" fill="white" transform="translate(0.923218 0.866211)"/>
</clipPath>
</defs>
</svg>
