<svg width="61" height="61" viewBox="0 0 61 61" fill="none" xmlns="http://www.w3.org/2000/svg">
<g id="mohommad" clipPath="url(#clip0)">
<rect width="60.819" height="60.819" transform="translate(0.072937 0.150635)" fill="white"/>
<path id="Vector" fillRule="evenodd" clipRule="evenodd" d="M-29.9468 -12.7148H74.1473V119.839H-29.9468V-12.7148Z" fill="#F3A140" stroke="#1C2628" strokeWidth="0.830413" strokeLinecap="round" strokeLinejoin="round"/>
<g id="Vector_2">
<path fillRule="evenodd" clipRule="evenodd" d="M37.3632 30.5244C39.5257 29.558 38.9491 25.6044 36.0368 23.408C33.1245 21.2116 28.4246 23.203 27.2424 23.1445C20.4952 22.793 18.1596 29.1773 20.3798 36.2058C21.0142 38.2558 26.4638 43.3808 28.6552 42.0336C30.9043 40.6572 26.5215 34.1265 28.4246 32.633" fill="#1C2628"/>
<path d="M37.3632 30.5244C39.5257 29.558 38.9491 25.6044 36.0368 23.408C33.1245 21.2116 28.4246 23.203 27.2424 23.1445C20.4952 22.793 18.1596 29.1773 20.3798 36.2058C21.0142 38.2558 26.4638 43.3808 28.6552 42.0336C30.9043 40.6572 26.5215 34.1265 28.4246 32.633" stroke="#1C2628" strokeWidth="0.830413" strokeLinecap="round" strokeLinejoin="round"/>
</g>
<path id="Vector_3" fillRule="evenodd" clipRule="evenodd" d="M24.8981 36.4082C24.8981 36.4082 24.5172 43.9994 23.7261 45.6007C21.4113 50.2858 10.5993 60.19 10.5993 60.19C10.5993 60.19 23.4331 59.508 27.5645 59.0335C31.696 58.5591 38.6696 52.4209 38.6696 52.4209L35.2414 39.2549L24.8981 36.4082Z" fill="#F45B49" stroke="#1C2628" strokeWidth="0.830413" strokeLinecap="round" strokeLinejoin="round"/>
<path id="Vector_4" fillRule="evenodd" clipRule="evenodd" d="M23.1558 36.2954C22.5409 31.6778 25.4986 27.4719 29.7741 26.913C31.8826 26.6189 33.991 25.0895 35.6017 26.413C37.2123 27.7366 38.2958 31.9425 38.5887 34.2366C39.2036 38.8542 36.2459 43.0601 31.9704 43.619C29.657 43.9131 27.3728 44.0896 25.7329 42.5307C24.3272 41.2072 23.4194 38.4131 23.1558 36.2954Z" fill="#F45B49" stroke="#1C2628" strokeWidth="0.830413" strokeLinecap="round" strokeLinejoin="round"/>
<g id="Vector_5">
<path fillRule="evenodd" clipRule="evenodd" d="M36.3304 33.2893C37.3969 34.411 40.283 36.4673 39.7811 37.1884C39.1537 38.1498 36.7068 37.0549 36.4558 36.8412" fill="#F45B49"/>
<path d="M36.3304 33.2893C37.3969 34.411 40.283 36.4673 39.7811 37.1884C39.1537 38.1498 36.7068 37.0549 36.4558 36.8412" stroke="#1C2628" strokeWidth="0.830413" strokeLinecap="round" strokeLinejoin="round"/>
</g>
<path id="Vector_6" fillRule="evenodd" clipRule="evenodd" d="M29.7156 32.6693C29.8051 32.0368 30.6697 31.6343 31.6237 31.7493C32.5778 31.8931 33.2933 32.4968 33.2039 33.1293C33.1144 33.7618 32.2498 34.1643 31.2958 34.0493C30.3119 33.9343 29.5964 33.3018 29.7156 32.6693Z" fill="#FAFCFF" stroke="#1C2628" strokeWidth="0.830413" strokeLinecap="round" strokeLinejoin="round"/>
<path id="Vector_7" fillRule="evenodd" clipRule="evenodd" d="M36.3348 32.6698C36.4234 32.0272 37.0727 31.6294 37.8401 31.7518C38.578 31.8742 39.1387 32.4862 39.0502 33.1288C38.9617 33.7715 38.3123 34.1693 37.5449 34.0469C36.8071 33.9245 36.2758 33.2818 36.3348 32.6698Z" fill="#FAFCFF" stroke="#1C2628" strokeWidth="0.830413" strokeLinecap="round" strokeLinejoin="round"/>
<g id="Vector_8">
<path fillRule="evenodd" clipRule="evenodd" d="M36.6468 25.9426C37.2883 26.4064 37.0259 24.6963 37.2883 25.5078C38.163 28.0875 36.3552 27.7687 34.3434 27.7687C32.4482 27.7687 30.2614 28.5513 30.2614 28.5513C30.2614 28.5513 27.4624 28.3194 27.0542 31.7976C26.9084 33.044 28.2204 35.7976 31.2528 37.3338C33.702 38.5801 38.2796 37.9135 38.2796 37.9135C38.2796 37.9135 38.3379 45.9134 35.189 46.9568C33.1771 47.6235 29.9699 48.8409 27.2 45.3337C26.5877 44.5511 22.9139 38.5512 22.564 37.0439C22.185 35.3628 25.0132 37.7396 24.8382 36.4352C24.4592 33.5947 24.5758 33.1309 24.051 32.928C22.0975 32.2324 21.2519 29.7687 22.4765 28.2614C23.497 27.0441 24.9257 26.3194 26.4127 25.8846C27.958 25.4499 29.7075 25.6238 31.1653 25.1021" fill="#1C2628"/>
<path d="M36.6468 25.9426C37.2883 26.4064 37.0259 24.6963 37.2883 25.5078C38.163 28.0875 36.3552 27.7687 34.3434 27.7687C32.4482 27.7687 30.2614 28.5513 30.2614 28.5513C30.2614 28.5513 27.4624 28.3194 27.0542 31.7976C26.9084 33.044 28.2204 35.7976 31.2528 37.3338C33.702 38.5801 38.2796 37.9135 38.2796 37.9135C38.2796 37.9135 38.3379 45.9134 35.189 46.9568C33.1771 47.6235 29.9699 48.8409 27.2 45.3337C26.5877 44.5511 22.9139 38.5512 22.564 37.0439C22.185 35.3628 25.0132 37.7396 24.8382 36.4352C24.4592 33.5947 24.5758 33.1309 24.051 32.928C22.0975 32.2324 21.2519 29.7687 22.4765 28.2614C23.497 27.0441 24.9257 26.3194 26.4127 25.8846C27.958 25.4499 29.7075 25.6238 31.1653 25.1021" stroke="#1C2628" strokeWidth="0.830413" strokeLinecap="round" strokeLinejoin="round"/>
</g>
<g id="Vector_9">
<path fillRule="evenodd" clipRule="evenodd" d="M32.4318 25.0027C30.8671 18.5662 25.9701 19.8358 25.6513 23.2017C23.4202 20.3377 17.2772 22.9064 19.8561 28.3981C18.8419 27.9552 17.1613 32.945 22.5509 32.0002" fill="#1C2628"/>
<path d="M32.4318 25.0027C30.8671 18.5662 25.9701 19.8358 25.6513 23.2017C23.4202 20.3377 17.2772 22.9064 19.8561 28.3981C18.8419 27.9552 17.1613 32.945 22.5509 32.0002" stroke="#1C2628" strokeWidth="0.830413" strokeLinecap="round" strokeLinejoin="round"/>
</g>
<g id="Vector_10">
<path fillRule="evenodd" clipRule="evenodd" d="M24.6046 33.2326C24.8228 33.2608 23.8135 32.2182 22.6133 33.6835C21.7678 34.6979 22.6679 37.6003 24.6046 36.5859" fill="#F45B49"/>
<path d="M24.6046 33.2326C24.8228 33.2608 23.8135 32.2182 22.6133 33.6835C21.7678 34.6979 22.6679 37.6003 24.6046 36.5859" stroke="#1C2628" strokeWidth="0.830413" strokeLinecap="round" strokeLinejoin="round"/>
</g>
<path id="Vector_11" d="M23.4649 34.4587L23.5169 34.6459L23.6208 34.9578L23.8547 35.2385" stroke="#1C2628" strokeWidth="0.830413" strokeLinecap="round" strokeLinejoin="round"/>
<path id="Vector_12" fillRule="evenodd" clipRule="evenodd" d="M33.2094 32.9282C33.2454 32.4959 32.8132 32.1213 32.2729 32.1213C31.7325 32.0925 31.2643 32.4383 31.2643 32.8705C31.2283 33.3028 31.6605 33.6774 32.2008 33.6774C32.7411 33.7062 33.2094 33.3604 33.2094 32.9282Z" fill="#1C2628" stroke="#1C2628" strokeWidth="0.830413" strokeLinecap="round" strokeLinejoin="round"/>
<path id="Vector_13" fillRule="evenodd" clipRule="evenodd" d="M38.6675 33.1177C38.6952 32.791 38.4455 32.511 38.1125 32.511C37.7796 32.4877 37.5021 32.7443 37.5021 33.071C37.4743 33.3976 37.7241 33.6776 38.057 33.6776C38.3622 33.701 38.6397 33.4443 38.6675 33.1177Z" fill="#1C2628" stroke="#1C2628" strokeWidth="0.830413" strokeLinecap="round" strokeLinejoin="round"/>
<path id="Vector_14" d="M36.7202 28.6109C37.3853 28.3816 37.6605 27.321 37.8898 26.6616" stroke="#FAF6EB" strokeWidth="0.830413" strokeLinecap="round" strokeLinejoin="round"/>
<path id="Vector_15" fillRule="evenodd" clipRule="evenodd" d="M38.2797 25.387C38.2797 25.387 33.4584 25.387 32.3188 25.4762C29.8351 25.714 28.228 26.6056 26.2703 28.0916C24.3709 29.548 22.7638 31.4799 21.2152 33.3226C21.0399 33.5306 20.1925 35.2842 20.4847 35.1356C20.8061 34.987 19.6373 35.7894 19.1113 35.938C18.001 36.2055 16.4815 35.7894 15.7218 34.8978C13.0043 31.6582 13.4134 29.5183 14.816 25.9517C15.8971 23.1877 17.6795 21.6719 19.4912 20.8694C22.7346 19.4428 26.0949 20.275 26.0949 20.275C26.0949 20.275 31.9974 19.6806 34.1012 20.4533C35.4161 20.9586 36.3512 21.7908 36.994 22.6527C37.9875 23.9901 38.2797 25.387 38.2797 25.387Z" fill="#FAF6EB" stroke="#1C2628" strokeWidth="0.830413" strokeLinecap="round" strokeLinejoin="round"/>
<path id="Vector_16" fillRule="evenodd" clipRule="evenodd" d="M31.948 38.6428C31.0396 37.5704 32.5118 36.0183 32.5118 36.0183L33.4515 37.9373L35.5503 38.6428C35.5816 38.671 33.6395 40.6183 31.948 38.6428Z" fill="#FB564C"/>
<path id="Vector_17" fillRule="evenodd" clipRule="evenodd" d="M3.0731 66.8176C3.0731 66.8176 -24.6045 50.3229 -19.5934 43.3546C-14.5532 36.3863 8.69602 22.6261 8.69602 22.6261L6.62748 13.7466L14.5811 6.77832C14.5811 6.77832 15.6008 7.36636 14.8725 9.39511C14.1441 11.4239 11.289 13.5996 11.289 13.5996C11.289 13.5996 18.2229 22.6849 15.3678 26.0955C9.68659 32.9757 -4.79317 44.2661 -4.79317 44.2661L11.726 53.3514L3.0731 66.8176Z" fill="#F45B49" stroke="#1C2628" strokeWidth="0.830413" strokeLinecap="round" strokeLinejoin="round"/>
<path id="Vector_18" fillRule="evenodd" clipRule="evenodd" d="M58.7654 74.7472L47.7763 78.169L54.7826 96.4668L4.75037 98.7866L6.11674 86.8104L7.62846 72.8043L-3.82574 63.2059L5.33181 44.9371C5.33181 44.9371 15.0999 50.8237 21.9317 50.3598C28.7635 49.8958 38.2699 47.9529 38.2699 47.9529C38.2699 47.9529 42.776 44.3572 47.7182 43.5742C50.8288 43.0812 54.0849 43.7192 56.585 46.967C63.068 55.4924 70.2487 71.1514 70.2487 71.1514L58.7654 74.7472Z" fill="#FAF6EB" stroke="#1C2628" strokeWidth="0.830413" strokeLinecap="round" strokeLinejoin="round"/>
<path id="Vector_19" fillRule="evenodd" clipRule="evenodd" d="M58.8493 74.2251C60.0871 72.4256 61.6703 70.9162 61.1234 68.0427C60.4613 64.4726 57.2948 63.9792 56.4024 59.3932C55.7403 55.9391 57.2948 55.1264 56.2585 52.9495C54.5025 49.2343 49.2921 50.3372 47.9392 47.0284C47.5074 45.9834 47.565 44.7354 47.9392 43.5743C51.0193 43.0809 54.2434 43.7195 56.7191 46.9703C63.1385 55.5038 70.2487 71.1775 70.2487 71.1775L58.8493 74.2251Z" fill="#1C2628" stroke="#1C2628" strokeWidth="0.830413" strokeLinecap="round" strokeLinejoin="round"/>
<path id="Vector_20" fillRule="evenodd" clipRule="evenodd" d="M37.1102 22.8023C36.1127 23.0536 35.0565 23.1793 34.059 23.1479C32.7682 23.1479 32.8562 22.8965 30.9199 22.6766C24.671 21.954 21.7959 24.1218 20.241 22.3938C19.8889 21.9854 19.6542 21.4827 19.5662 20.9171C22.8227 19.409 26.1965 20.2888 26.1965 20.2888C26.1965 20.2888 32.1228 19.6604 34.2351 20.4773C35.5259 21.0114 36.4647 21.8911 37.1102 22.8023Z" fill="#1C2628" stroke="#1C2628" strokeWidth="0.830413" strokeLinecap="round" strokeLinejoin="round"/>
</g>
<defs>
<clipPath id="clip0">
<rect width="60.819" height="60.819" fill="white" transform="translate(0.072937 0.150635)"/>
</clipPath>
</defs>
</svg>
