<svg width="62" height="61" viewBox="0 0 62 61" fill="none" xmlns="http://www.w3.org/2000/svg">
<g id="paul" clipPath="url(#clip0)">
<rect width="60.6055" height="60.6055" transform="translate(0.908844 0.0507812)" fill="white"/>
<path id="backdrop" fillRule="evenodd" clipRule="evenodd" d="M40.8063 -3.45406C45.8442 -2.40174 51.5621 -2.80409 55.9201 -0.328054C60.618 2.39559 66.954 7.06911 69.8902 11.3403C75.5154 19.4803 76.3808 28.7345 81.0169 37.3387C94.7708 62.9657 96.2234 82.6502 85.6222 109.515C79.1007 126.012 73.2592 138.392 58.4236 149.875C52.2421 154.672 46.0606 161.729 37.7774 163.771C31.5341 165.319 9.3425 163.586 2.54286 162.441C-15.4453 159.346 -28.2101 140.93 -27.1592 125.238C-26.6029 116.727 -19.8651 109.051 -24.6248 100.571C-32.5062 86.55 -54.7287 93.1425 -61.8992 78.5957C-64.99 72.3128 -63.1046 65.3799 -61.8992 58.8802C-57.1395 33.408 -33.1862 11.7736 -7.00755 1.49802C-3.76226 0.229053 -0.269719 -1.22562 3.34646 -2.55649C15.3695 -7.07527 28.567 -7.32287 40.8063 -3.45406Z" fill="#49574E"/>
<g id="Group 34">
<g id="Vector">
<path fillRule="evenodd" clipRule="evenodd" d="M32.1909 21.0786C29.3724 19.8201 30.1126 14.7006 33.9275 11.8691C37.7424 9.03758 43.8918 11.6117 45.4577 11.5259C54.3117 11.0968 57.3579 19.3625 54.454 28.4576C53.5999 31.0889 46.511 37.753 43.6071 36.0083C40.6748 34.235 46.3972 25.7692 43.8918 23.8243" fill="#1C2628"/>
<path d="M32.1909 21.0786C29.3724 19.8201 30.1126 14.7006 33.9275 11.8691C37.7424 9.03758 43.8918 11.6117 45.4577 11.5259C54.3117 11.0968 57.3579 19.3625 54.454 28.4576C53.5999 31.0889 46.511 37.753 43.6071 36.0083C40.6748 34.235 46.3972 25.7692 43.8918 23.8243" stroke="#1C2628" strokeWidth="0.827498" strokeLinecap="round" strokeLinejoin="round"/>
</g>
<path id="Vector_2" fillRule="evenodd" clipRule="evenodd" d="M46.843 31.5791L47.938 40.8238L51.1653 44.955C51.1653 44.955 48.0821 49.2017 42.6649 48.5661C37.2477 47.9595 35.6052 44.5505 35.6052 44.5505L35.2018 32.5325L46.843 31.5791Z" fill="#FAF6EB" stroke="#1C2628" strokeWidth="0.827498" strokeLinecap="round" strokeLinejoin="round"/>
<path id="Vector_3" fillRule="evenodd" clipRule="evenodd" d="M51.057 28.524C51.8766 22.4842 47.9545 16.967 42.3055 16.2411C39.4956 15.8636 36.6857 13.86 34.5783 15.5732C32.4417 17.3155 31.0075 22.8036 30.5977 25.8235C29.7782 31.8633 33.5247 36.9158 39.1737 37.6708C42.2469 38.0774 45.4373 38.7452 47.6325 36.7126C49.4765 34.9994 50.7058 31.3116 51.057 28.524Z" fill="#FAF6EB" stroke="#1C2628" strokeWidth="0.827498" strokeLinecap="round" strokeLinejoin="round"/>
<g id="Vector_4">
<path fillRule="evenodd" clipRule="evenodd" d="M33.3878 24.3232C32.1841 25.9148 28.9207 28.8955 29.4557 29.9372C30.1779 31.2973 32.9331 29.7636 33.2006 29.4453" fill="#FAF6EB"/>
<path d="M33.3878 24.3232C32.1841 25.9148 28.9207 28.8955 29.4557 29.9372C30.1779 31.2973 32.9331 29.7636 33.2006 29.4453" stroke="#1C2628" strokeWidth="0.827498" strokeLinecap="round" strokeLinejoin="round"/>
</g>
<path id="Vector_5" fillRule="evenodd" clipRule="evenodd" d="M42.0855 23.3024C41.9736 22.5246 40.9111 22.015 39.7087 22.1759C38.5062 22.3369 37.6394 23.1147 37.7512 23.8925C37.8631 24.6703 38.9257 25.1799 40.1281 25.019C41.3305 24.8581 42.1973 24.0802 42.0855 23.3024Z" fill="#FAFCFF" stroke="#1C2628" strokeWidth="0.827498" strokeLinecap="round" strokeLinejoin="round"/>
<path id="Vector_6" fillRule="evenodd" clipRule="evenodd" d="M33.743 23.4577C33.6536 22.5905 32.7293 22.0124 31.7455 22.173C30.7318 22.3336 30.0162 23.2008 30.1355 24.1C30.2249 24.9672 31.1492 25.5453 32.1331 25.3847C33.1169 25.192 33.8325 24.357 33.743 23.4577Z" fill="#FAFCFF" stroke="#1C2628" strokeWidth="0.827498" strokeLinecap="round" strokeLinejoin="round"/>
<path id="Vector_7" fillRule="evenodd" clipRule="evenodd" d="M46.5179 40.6168L46.8116 33.6517C46.8116 33.6517 41.0265 32.0509 39.6169 33.9888C38.2073 35.9266 40.7622 41.3189 40.7622 41.3189L45.0203 41.3751" fill="#FAF6EB"/>
<g id="Vector_8">
<path fillRule="evenodd" clipRule="evenodd" d="M33.0615 14.8444C32.1843 15.4814 32.5644 13.1939 32.2135 14.2653C31.0439 17.682 33.7926 19.0429 36.4535 19.014C38.9976 19.014 41.5416 18.319 41.5416 18.319C41.5416 18.319 45.8109 25.5579 49.7585 24.1391C52.361 23.2125 53.5014 19.9405 51.8346 17.9716C50.4603 16.3501 48.5888 15.4235 46.5711 14.8444C44.5242 14.2653 42.2141 14.4969 40.2257 13.802" fill="#1C2628"/>
<path d="M33.0615 14.8444C32.1843 15.4814 32.5644 13.1939 32.2135 14.2653C31.0439 17.682 33.7926 19.0429 36.4535 19.014C38.9976 19.014 41.5416 18.319 41.5416 18.319C41.5416 18.319 45.8109 25.5579 49.7585 24.1391C52.361 23.2125 53.5014 19.9405 51.8346 17.9716C50.4603 16.3501 48.5888 15.4235 46.5711 14.8444C44.5242 14.2653 42.2141 14.4969 40.2257 13.802" stroke="#1C2628" strokeWidth="0.827498" strokeLinecap="round" strokeLinejoin="round"/>
</g>
<g id="Vector_9">
<path fillRule="evenodd" clipRule="evenodd" d="M31.1138 15.9787C27.7266 8.05434 33.8641 5.45145 36.875 8.6906C36.9908 3.94756 45.5022 1.69173 47.0655 9.47147C47.7893 8.19895 53.4635 12.0454 47.0655 15.3424" fill="#1C2628"/>
<path d="M31.1138 15.9787C27.7266 8.05434 33.8641 5.45145 36.875 8.6906C36.9908 3.94756 45.5022 1.69173 47.0655 9.47147C47.7893 8.19895 53.4635 12.0454 47.0655 15.3424" stroke="#1C2628" strokeWidth="0.827498" strokeLinecap="round" strokeLinejoin="round"/>
</g>
<g id="Vector_10">
<path fillRule="evenodd" clipRule="evenodd" d="M49.0333 24.3827C48.7157 24.4382 50.1306 23.0778 51.8053 24.9657C52.9892 26.2984 51.7476 30.0743 49.0333 28.7694" fill="#FAF6EB"/>
<path d="M49.0333 24.3827C48.7157 24.4382 50.1306 23.0778 51.8053 24.9657C52.9892 26.2984 51.7476 30.0743 49.0333 28.7694" stroke="#1C2628" strokeWidth="0.827498" strokeLinecap="round" strokeLinejoin="round"/>
</g>
<path id="Vector_11" d="M50.0769 26.1372L50.0251 26.4253L49.9215 26.8415L49.7141 27.2256" stroke="#1C2628" strokeWidth="0.827498" strokeLinecap="round" strokeLinejoin="round"/>
<path id="Vector_12" fillRule="evenodd" clipRule="evenodd" d="M38.1055 24.0206C38.0799 23.4167 38.4627 22.9034 38.973 22.8733C39.4833 22.8431 39.9171 23.296 39.9171 23.8999C39.9426 24.5037 39.5599 25.017 39.0495 25.0472C38.5647 25.0774 38.131 24.6245 38.1055 24.0206Z" fill="#1C2628" stroke="#1C2628" strokeWidth="0.827498" strokeLinecap="round" strokeLinejoin="round"/>
<path id="Vector_13" fillRule="evenodd" clipRule="evenodd" d="M30.4873 24.1824C30.4549 23.6687 30.8429 23.2632 31.3277 23.2361C31.8126 23.2091 32.2652 23.6147 32.2975 24.1013C32.3299 24.615 31.9419 25.0206 31.4247 25.0476C30.9398 25.0747 30.5196 24.6691 30.4873 24.1824Z" fill="#1C2628" stroke="#1C2628" strokeWidth="0.827498" strokeLinecap="round" strokeLinejoin="round"/>
<path id="Vector_14" d="M33.3878 18.5182C32.1713 18.2112 31.6591 16.8716 31.211 15.9785" stroke="#FAF6EB" strokeWidth="0.827498" strokeLinecap="round" strokeLinejoin="round"/>
<path id="Vector_15" fillRule="evenodd" clipRule="evenodd" d="M42.0952 38.0852L35.5647 36.2959L35.8345 41.3752C35.8345 41.3752 37.8045 40.8269 39.4776 39.8168C41.1237 38.8067 42.0952 38.0852 42.0952 38.0852Z" fill="#1C2628" stroke="#1C2628" strokeWidth="0.827498" strokeLinecap="round" strokeLinejoin="round"/>
<path id="Vector_16" fillRule="evenodd" clipRule="evenodd" d="M51.459 42.9025C51.459 42.9025 67.1843 47.6621 69.6612 57.9024C72.1381 68.1716 61.3665 83.9216 61.3665 83.9216L42.9051 109.22L3.27489 101.921C3.27489 101.921 7.68144 59.7774 11.9728 51.239C13.2688 48.6429 14.3921 43.8833 18.309 41.8929C22.082 39.989 28.6486 40.7967 28.6486 40.7967L36.0504 38.8352L38.2969 45.9602L48.0605 40.3641L51.459 42.9025Z" fill="#F3A140" stroke="#1C2628" strokeWidth="0.827498" strokeLinecap="round" strokeLinejoin="round"/>
<path id="Vector_17" d="M37.7416 46.4543C34.0665 59.8798 29.6915 73.1609 26.5124 86.7307C25.1707 92.4762 24.4124 98.4816 22.8665 104.14" stroke="#1C2628" strokeWidth="0.827498" strokeLinecap="round" strokeLinejoin="round"/>
<path id="Vector_18" d="M48.9884 42.8262C46.1418 53.7244 50.5513 52.8283 41.0067 48.5788" stroke="#1C2628" strokeWidth="0.827498" strokeLinecap="round" strokeLinejoin="round"/>
<path id="Vector_19" d="M31.0956 41.375C29.0718 48.5187 25.2882 50.4903 35.2019 46.8328" stroke="#1C2628" strokeWidth="0.827498" strokeLinecap="round" strokeLinejoin="round"/>
<path id="Vector_20" d="M40.2812 29.0396C40.1993 32.1643 37.7415 31.8667 37.7415 30.9739" stroke="#1C2628" strokeWidth="0.827498" strokeLinecap="round" strokeLinejoin="round"/>
<path id="Vector_21" d="M30.8481 60.0594C30.8481 59.567 30.4314 59.1523 29.9411 59.1523C29.4508 59.1523 29.0341 59.567 29.0341 60.0594C29.0341 60.5517 29.4508 60.9664 29.9411 60.9664C30.4314 60.9664 30.8481 60.5517 30.8481 60.0594Z" stroke="#1C2628" strokeWidth="0.827498" strokeLinecap="round" strokeLinejoin="round"/>
<g id="Chello">
<path id="Vector_22" fillRule="evenodd" clipRule="evenodd" d="M49.2467 106.979C49.2467 106.979 50.9197 88.5604 38.3434 80.6912C25.767 72.8221 18.2385 58.064 18.2385 58.064C18.2385 58.064 1.30651 75.6181 -4.34709 83.8331C-10.0007 92.0481 -12.0775 113.09 -12.0775 113.09C-12.0775 113.09 -3.13561 118.278 -0.943397 124.015C1.21997 129.664 -1.11646 136.87 -4.37594 139.926L-12.3083 143.183C-12.3083 143.183 -15.0197 167.367 -5.96241 181.721C3.09489 196.076 16.9116 201.985 43.3624 192.185C66.8421 183.48 55.8522 135.948 55.8522 135.948C55.8522 135.948 46.4199 134.132 43.6508 126.58C38.0549 111.534 49.2467 106.979 49.2467 106.979Z" fill="#1C2628" stroke="#1C2628" strokeWidth="0.827498" strokeLinecap="round" strokeLinejoin="round"/>
<path id="Vector_23" fillRule="evenodd" clipRule="evenodd" d="M55.0023 106.502C55.0023 106.502 56.6843 88.0434 44.0403 80.1572C31.3963 72.2709 19.7673 59.8782 19.7673 59.8782C19.7673 59.8782 6.80429 75.0441 1.12029 83.3059C-4.5637 91.5388 -6.65171 112.627 -6.65171 112.627C-6.65171 112.627 2.33829 117.826 4.54229 123.575C6.71729 129.237 4.36829 136.459 1.09129 139.521L-6.88371 142.756C-6.88371 142.756 -6.12971 166.791 2.97629 181.176C12.0823 195.562 22.4933 201.687 49.0863 191.865C72.6923 183.141 61.6433 135.505 61.6433 135.505C61.6433 135.505 52.1603 133.686 49.3763 126.117C43.7793 111.038 55.0023 106.502 55.0023 106.502Z" fill="#1C2628" stroke="#1C2628" strokeWidth="0.827498" strokeLinecap="round" strokeLinejoin="round"/>
<path id="Vector_24" d="M19.6004 60.6667C19.6586 60.0298 16.6336 64.4012 15.9064 65.1249C12.5324 68.4831 10.2636 72.4782 7.26774 76.0969C-1.19642 86.3161 -6.19929 100.154 -7.24641 113.21" stroke="#FAF6EB" strokeWidth="0.827498" strokeLinecap="round" strokeLinejoin="round"/>
<path id="Vector_25" fillRule="evenodd" clipRule="evenodd" d="M35.5646 155.947L19.7854 -0.628487C19.7854 -0.628487 19.4975 -9.86597 15.6679 -11.8867C11.8383 -13.9074 13.4795 -14.9466 13.4795 -14.9466C13.4795 -14.9466 22.8376 -22.25 16.5029 -26.0027C10.1682 -29.7266 6.36738 -27.4749 5.10044 -23.9531C3.8335 -20.4313 4.66853 -15.6105 4.66853 -15.6105L-0.715973 -13.9362L0.464588 -9.72163L5.73391 -11.3959L6.65532 -7.5566L0.320617 -4.64102L2.48018 1.10354L8.93006 -1.69657L25.3427 158.198L35.5646 155.947Z" fill="#1C2628" stroke="#1C2628" strokeWidth="0.827498" strokeLinecap="round" strokeLinejoin="round"/>
<path id="Vector_26" d="M33.0251 157.835L19.2628 20.8624L17.7872 6.18262" stroke="#FAF6EB" strokeWidth="0.827498" strokeLinecap="round" strokeLinejoin="round"/>
<path id="Vector_27" d="M30.8482 158.561L16.3386 20.9724L14.8848 6.54565" stroke="#FAF6EB" strokeWidth="0.827498" strokeLinecap="round" strokeLinejoin="round"/>
<path id="Vector_28" d="M27.9457 158.924L13.3999 21.0374L11.9822 6.90845" stroke="#FAF6EB" strokeWidth="0.827498" strokeLinecap="round" strokeLinejoin="round"/>
</g>
<path id="Vector_29" fillRule="evenodd" clipRule="evenodd" d="M69.5535 98.88C65.2968 109.861 43.8976 123.732 43.8976 123.732L36.861 117.057L32.6622 113.069C32.6622 113.069 46.5037 94.5454 47.3434 91.3378C48.1832 88.1013 47.662 71.0518 47.662 71.0518L58.6367 60.1864L69.6693 57.7012C69.6983 57.6723 73.8102 87.8701 69.5535 98.88Z" fill="#F3A140" stroke="#1C2628" strokeWidth="0.827498" strokeLinecap="round" strokeLinejoin="round"/>
<path id="Vector_30" fillRule="evenodd" clipRule="evenodd" d="M1.46922 44.2141C3.37907 40.1922 10.8475 29.2048 13.2134 29.7877C15.6078 30.3706 24.0169 35.0045 22.7342 36.9863C22.0215 38.0938 14.7242 33.1101 14.7242 33.3142C14.7242 33.897 23.7888 37.6858 22.3921 40.5419C21.879 41.5911 13.926 36.2868 13.1564 36.0537C12.3867 35.8205 20.2542 42.0574 19.171 42.7277C18.1163 43.3689 13.0994 40.2796 13.0994 40.2796C13.0994 40.2796 12.5008 47.245 11.9021 47.8571C11.4461 48.3525 1.12715 44.9135 1.46922 44.2141Z" fill="#FAF6EB" stroke="#1C2628" strokeWidth="0.827498" strokeLinecap="round" strokeLinejoin="round"/>
<path id="Vector_31" fillRule="evenodd" clipRule="evenodd" d="M54.863 74.3902C50.2339 74.3902 47.4275 71.5132 47.2539 71.1999C45.2287 67.8672 45.084 61.4865 47.6011 58.6096C49.4527 56.5017 52.6641 56.3593 59.087 56.0744C61.6619 55.9605 66.32 55.7326 67.2458 56.0459C73.1189 58.0399 64.5841 64.1356 64.4105 64.7623C63.4847 68.1235 60.36 74.4187 54.863 74.3902Z" fill="#F3A13B"/>
<path id="Vector_32" d="M54.4306 46.4543C55.0644 47.1219 60.9995 49.8502 64.2263 52.9849" stroke="#1C2628" strokeWidth="0.827498" strokeLinecap="round" strokeLinejoin="round"/>
<path id="Vector_33" d="M43.3649 27.951C44.0662 27.951 44.6348 27.3013 44.6348 26.4998C44.6348 25.6983 44.0662 25.0486 43.3649 25.0486C42.6636 25.0486 42.0951 25.6983 42.0951 26.4998C42.0951 27.3013 42.6636 27.951 43.3649 27.951Z" fill="#F55C4A"/>
</g>
</g>
<defs>
<clipPath id="clip0">
<rect width="60.6055" height="60.6055" fill="white" transform="translate(0.908844 0.0507812)"/>
</clipPath>
</defs>
</svg>
