<svg width="61" height="62" viewBox="0 0 61 62" fill="none" xmlns="http://www.w3.org/2000/svg">
<g id="sarah" clipPath="url(#clip0)">
<rect width="60.4572" height="60.4572" transform="translate(0.226929 0.572266)" fill="white"/>
<path id="Back" d="M47.0138 79.7776C36.3046 95.3859 21.8269 111.968 -2.41784 125.001C-26.6626 138.034 -60.8314 147.487 -75.9372 133.889C-91.0745 120.447 -86.929 83.7661 -84.2596 55.3444C-81.5901 27.0798 -80.2083 7.10618 -71.886 -9.47572C-63.5636 -25.8692 -48.4263 -38.9023 -32.661 -40.2841C-17.084 -41.6974 -0.910397 -31.2709 24.2765 -31.051C49.4948 -30.8312 83.7264 -40.818 93.1793 -31.5221C102.632 -22.2262 87.1495 6.35246 75.9693 27.865C64.8205 49.3461 57.7229 64.1379 47.0138 79.7776Z" fill="#F3A13B"/>
<path id="Body" fillRule="evenodd" clipRule="evenodd" d="M95.4095 -33.8461C93.2425 -36.013 73.9912 -22.289 73.9912 -22.289C73.9912 -22.289 61.9002 12.0996 58.9167 18.8203C55.9018 25.6038 44.9728 43.4419 44.9728 43.4419C44.9728 43.4419 22.895 41.9973 12.4371 51.1676C6.31314 56.5378 -0.847224 76.3859 -0.847224 76.3859C-0.847224 76.3859 -10.7712 78.2074 -16.2985 73.1511C-19.4705 70.2619 -22.925 61.8139 -25.1862 57.8883C-26.8821 54.999 -27.8242 56.0668 -27.8242 56.0668L-25.4688 71.6437L-31.1218 70.4503L-24.8721 80.4999C-24.8721 80.4999 -4.05055 98.5893 4.14619 93.1876C12.3429 87.7859 18.6868 78.2074 18.6868 78.2074L18.7182 101.165L57.3151 88.3826L57.7547 63.4784C57.7547 63.4784 71.0705 42.594 77.1317 20.4848C79.9895 9.99546 83.2871 -11.2972 83.2871 -11.2972C83.2871 -11.2972 95.9434 -15.2543 97.5136 -24.8328C98.5186 -31.0196 98.0161 -31.2395 95.4095 -33.8461Z" fill="#F45B49" stroke="#1C2628" strokeWidth="1.37849" strokeLinecap="round" strokeLinejoin="round"/>
<path id="Hair" fillRule="evenodd" clipRule="evenodd" d="M22.549 26.6717C19.5027 16.8105 23.5226 9.21042 37.592 11.0005C39.2251 11.2203 41.1722 11.4088 42.6483 12.2567C49.3062 16.151 48.05 20.6733 48.8665 21.584C51.2533 24.3163 52.3839 34.837 53.3888 37.7891L20.4135 37.4436L22.549 26.6717Z" fill="#1C2628" stroke="#1C2628" strokeWidth="1.37849" strokeLinecap="round" strokeLinejoin="round"/>
<path id="Neck2" fillRule="evenodd" clipRule="evenodd" d="M39.8216 33.3293L39.696 41.9971L41.8943 44.5409C41.8943 44.5409 42.9621 53.1773 39.539 55.1872C35.8017 57.417 27.3852 53.0517 24.5273 52.3294C21.9521 51.6699 26.0662 46.2682 26.0662 46.2682L26.3488 36.3128L26.0976 32.45L39.8216 33.3293Z" fill="#F45B49" stroke="#1C2628" strokeWidth="1.37849" strokeLinecap="round" strokeLinejoin="round"/>
<path id="FaceBack" fillRule="evenodd" clipRule="evenodd" d="M41.5805 28.1789C42.1772 26.012 41.9574 21.6781 41.4235 19.6996C40.4499 16.1194 39.445 17.6896 35.802 16.6847C31.7507 15.5541 29.7722 13.9524 27.1341 17.1872C26.0978 18.4434 23.0515 23.1541 22.5804 24.85C20.9159 30.9112 24.1193 37.098 29.7408 38.6683C33.3524 39.6732 36.3045 39.3592 38.9425 36.7839C40.4813 35.3707 40.9838 30.3459 41.5805 28.1789Z" fill="#F45B49" stroke="#1C2628" strokeWidth="1.37849" strokeLinecap="round" strokeLinejoin="round"/>
<path id="Neck1" fillRule="evenodd" clipRule="evenodd" d="M38.5658 43.0023L39.4451 34.146C39.4451 34.146 32.3162 32.5758 30.5889 34.4287C28.893 36.2816 30.6831 42.3742 30.6831 42.3742L34.9856 43.0337" fill="#FB564C"/>
<path id="Hair2" fillRule="evenodd" clipRule="evenodd" d="M45.8827 27.2681C44.1868 30.283 41.3289 23.4995 41.3289 23.4995L29.8033 20.7672L28.9867 14.8945L26.2859 21.4581L22.1718 21.3639C22.1718 21.3639 25.4379 13.1986 26.2545 12.4135C29.6148 9.21013 35.3306 9.36716 39.0364 12.4449C42.1455 15.0201 49.4 21.0499 45.8827 27.2681Z" fill="#1C2628" stroke="#1C2628" strokeWidth="1.37849" strokeLinecap="round" strokeLinejoin="round"/>
<g id="Face">
<path id="Vector" fillRule="evenodd" clipRule="evenodd" d="M32.724 30.7856C31.9388 32.4501 29.6463 31.8848 28.0446 32.4501C28.0446 32.4501 29.3008 35.2138 32.0331 33.7691C33.8232 32.7956 32.724 30.7856 32.724 30.7856Z" fill="#1C2628" stroke="#1C2628" strokeWidth="1.37849" strokeLinecap="round" strokeLinejoin="round"/>
<g id="Eyes">
<path id="Vector_2" fillRule="evenodd" clipRule="evenodd" d="M33.4153 27.6138C33.698 26.7658 32.9128 25.7609 31.688 25.3526C30.4632 24.9444 29.2384 25.2898 28.9558 26.1377C28.6731 26.9857 29.4583 27.9906 30.6831 28.3989C31.9393 28.8072 33.1327 28.4617 33.4153 27.6138Z" fill="#FAFCFF" stroke="#1C2628" strokeWidth="1.37849" strokeLinecap="round" strokeLinejoin="round"/>
<path id="Vector_3" fillRule="evenodd" clipRule="evenodd" d="M26.0986 24.2532C26.3813 23.4053 25.5961 22.4003 24.3713 21.992C23.1465 21.5838 21.9217 21.9292 21.6391 22.7772C21.3564 23.6251 22.1416 24.6301 23.3664 25.0383C24.6226 25.4466 25.816 25.0697 26.0986 24.2532Z" fill="#FAFCFF" stroke="#1C2628" strokeWidth="1.37849" strokeLinecap="round" strokeLinejoin="round"/>
<path id="Vector_4" fillRule="evenodd" clipRule="evenodd" d="M29.584 27.9588C30.1807 28.3357 30.903 28.2415 31.2171 27.7704C31.5311 27.2993 31.2799 26.6084 30.6832 26.2316C30.0865 25.8547 29.3642 25.9489 29.0501 26.42C28.7361 26.8911 28.9873 27.582 29.584 27.9588Z" fill="#1C2628" stroke="#1C2628" strokeWidth="1.37849" strokeLinecap="round" strokeLinejoin="round"/>
<path id="Vector_5" fillRule="evenodd" clipRule="evenodd" d="M23.8056 24.3474C24.1824 23.7507 24.0882 22.8086 22.5179 22.5259C21.9527 22.4317 22.0155 22.7143 21.6072 23.2796C21.2303 23.8763 21.7328 24.5044 22.2039 24.8185C22.7064 25.1325 23.4287 24.9441 23.8056 24.3474Z" fill="#1C2628" stroke="#1C2628" strokeWidth="1.37849" strokeLinecap="round" strokeLinejoin="round"/>
</g>
<g id="Ears">
<g id="Vector_6">
<path fillRule="evenodd" clipRule="evenodd" d="M40.4504 28.8071C41.2669 27.8336 42.8686 28.8071 43.1826 29.7493C43.8107 31.6964 42.3347 34.9939 39.2884 33.0154" fill="#F45B49"/>
<path d="M40.4504 28.8071C41.2669 27.8336 42.8686 28.8071 43.1826 29.7493C43.8107 31.6964 42.3347 34.9939 39.2884 33.0154" stroke="#1C2628" strokeWidth="1.37849" strokeLinecap="round" strokeLinejoin="round"/>
</g>
<path id="Vector_7" d="M41.2666 30.7229C41.2038 30.7857 41.141 30.8485 41.1096 30.9427" stroke="#1C2628" strokeWidth="1.37849" strokeLinecap="round" strokeLinejoin="round"/>
</g>
<g id="Glasses">
<path id="Vector_8" d="M27.6364 26.7974C27.6364 24.4106 29.7091 22.4949 32.2843 22.4949C34.8595 22.4949 36.9323 24.4106 36.9323 26.7974C36.9323 29.1842 34.8595 31.0999 32.2843 31.0999C29.7091 31.0999 27.6364 29.1842 27.6364 26.7974Z" stroke="#FAF6EB" strokeWidth="1.37849" strokeLinecap="round" strokeLinejoin="round"/>
<path id="Vector_9" d="M18.4032 24.0022C18.4032 21.6154 20.4759 19.6997 23.0512 19.6997C25.6264 19.6997 27.6991 21.6154 27.6991 24.0022C27.6991 26.389 25.6264 28.3047 23.0512 28.3047C20.4759 28.3047 18.4032 26.3576 18.4032 24.0022Z" stroke="#FAF6EB" strokeWidth="1.37849" strokeLinecap="round" strokeLinejoin="round"/>
</g>
<g id="Vector_10">
<path fillRule="evenodd" clipRule="evenodd" d="M26.9178 27.4948C24.8136 27.1179 22.9607 25.6419 22.3012 26.7097C21.4533 28.0915 24.2169 30.3526 24.6566 30.4783" fill="#F45B49"/>
<path d="M26.9178 27.4948C24.8136 27.1179 22.9607 25.6419 22.3012 26.7097C21.4533 28.0915 24.2169 30.3526 24.6566 30.4783" stroke="#1C2628" strokeWidth="1.37849" strokeLinecap="round" strokeLinejoin="round"/>
</g>
</g>
<g id="Highlights">
<path id="Vector_11" d="M30.0231 13.3872C31.9074 13.3872 31.876 19.1343 32.2215 21.2385" stroke="#FAF6EB" strokeWidth="1.37849" strokeLinecap="round" strokeLinejoin="round"/>
<path id="Vector_12" d="M37.5604 10.875C44.4695 17.4701 43.8414 26.7346 44.7208 31.5082" stroke="#FAF6EB" strokeWidth="1.37849" strokeLinecap="round" strokeLinejoin="round"/>
<path id="Vector_13" d="M47.2018 23.9707C47.8613 27.6137 48.7093 31.2253 49.4944 34.8683" stroke="#FAF6EB" strokeWidth="1.37849" strokeLinecap="round" strokeLinejoin="round"/>
</g>
</g>
<defs>
<clipPath id="clip0">
<rect width="60.4572" height="60.4572" fill="white" transform="translate(0.226929 0.572266)"/>
</clipPath>
</defs>
</svg>
